<?xml version="1.0" encoding="utf-8"?>
<!DOCTYPE svg PUBLIC "-//W3C//DTD SVG 1.0//EN" "http://www.w3.org/TR/2001/REC-SVG-20010904/DTD/svg10.dtd">
<svg version="1.0" xmlns="http://www.w3.org/2000/svg" width="759px" height="759px" viewBox="0 0 759 759" preserveAspectRatio="xMidYMid meet">
 <g fill="#010101">
  <path d="M94.4 712.1 c-1.2 -0.5 -7.1 -1.1 -13.1 -1.4 -6.1 -0.3 -12.6 -1 -14.5 -1.5 -1.8 -0.6 -7.3 -1.7 -12.3 -2.6 -10.1 -1.9 -21.3 -6.9 -22.5 -10.1 -0.4 -1.1 -2.7 -7.8 -5.1 -15 l-4.3 -13 -0.4 -18.4 c-0.4 -20.1 0.6 -32.4 3.9 -44.6 6.4 -24.1 8.1 -31.5 10.4 -46.5 1.5 -9.1 4.4 -23.2 6.5 -31.5 2.1 -8.2 4.1 -17.5 4.5 -20.5 0.3 -3 1.5 -10.9 2.5 -17.5 1.8 -11.4 4.5 -48.9 5.9 -82.5 1.8 -42.4 -7.7 -117.9 -18.2 -145.5 -1.9 -4.9 -4 -11.5 -4.6 -14.5 -0.6 -3 -2.1 -9.4 -3.3 -14.3 -2.1 -8.5 -2.1 -9.4 -0.9 -31 1.3 -23.1 3.1 -33.4 7.1 -41.9 1.2 -2.6 7.6 -12.7 14.4 -22.5 13.7 -20 18.6 -24.8 36 -35.5 12.3 -7.6 23.9 -12.1 39.8 -15.3 14.9 -3.1 23.8 -3.2 31.2 -0.5 6.4 2.4 12.7 8.7 15.7 15.6 2 4.9 4.9 19.4 4.9 25.1 l0 3.3 16.8 -0.5 c71.3 -2.5 83.1 -3.7 118.8 -12.5 50.4 -12.4 64.7 -16.1 77.4 -20 17.7 -5.5 18.7 -5.7 36.5 -8 8.8 -1.2 22.1 -3.7 29.5 -5.6 7.4 -1.9 19.4 -4.4 26.5 -5.5 16.8 -2.6 18.4 -3 35.2 -8.3 8.4 -2.6 18.1 -4.9 23.6 -5.6 5.2 -0.6 13.7 -2 18.8 -3.1 5.2 -1.1 13.5 -2.9 18.4 -3.9 5 -1.1 14 -2.4 20 -3 6.1 -0.5 17.1 -2.1 24.5 -3.4 14.7 -2.7 37.4 -4.2 41.2 -2.7 1.2 0.5 7.1 1.1 12.9 1.4 5.8 0.4 12.6 1.1 15 1.7 2.4 0.5 8.2 1.7 12.9 2.5 5.2 0.9 11 2.8 15 4.9 6.4 3.2 6.5 3.4 8.1 9.2 0.9 3.2 3.2 10 5 14.9 3.2 8.8 3.3 9.4 3.7 28.1 0.5 21.4 -1.1 36 -5.3 49.4 -3.4 10.6 -6.9 26.8 -9.5 43.5 -1.2 7.7 -3.9 20.8 -6 29 -2.1 8.3 -4.1 17.5 -4.5 20.5 -0.4 3 -1.5 11 -2.6 17.7 -1.8 11.4 -4.1 44.2 -5.8 80.8 -2 41.8 7.5 119.4 17.8 145.8 1.6 4.3 4.6 14.9 6.7 23.5 4 17.2 3.9 14 1.5 51.2 -1.3 19.6 -3.4 25.4 -17.3 46 -14.5 21.5 -15.9 23.3 -24.3 29.9 -17.5 13.9 -35.1 22 -56.8 26.1 -30.4 5.7 -43.4 -1.8 -48.1 -28 -0.8 -4.7 -1.7 -10.1 -1.8 -12 l-0.3 -3.5 -16 0.3 c-38.9 0.7 -80.5 3.5 -94.5 6.3 -10.8 2.2 -95.3 23.4 -96.8 24.3 -3.6 2.2 -28 7.9 -41 9.6 -8.6 1.1 -22.9 3.8 -31.7 6 -8.8 2.2 -20.8 4.6 -26.8 5.5 -12.5 1.7 -18.6 3.2 -35.4 8.5 -7.6 2.4 -16.8 4.5 -24.5 5.5 -6.8 0.9 -17.9 2.9 -24.8 4.5 -6.9 1.6 -17 3.4 -22.5 4.1 -5.5 0.6 -18.1 2.4 -28 3.9 -18.9 3 -41.5 4.6 -45.1 3.1z m39.1 -9.6 c7.2 -1.3 15.9 -2.6 19.5 -3 12.1 -1.1 22.5 -2.7 30.3 -4.6 10.6 -2.7 16.3 -3.7 28.9 -5.4 6.5 -0.9 17.2 -3.4 27 -6.5 10.2 -3.1 21.4 -5.8 29.8 -7 7.4 -1.1 20.7 -3.8 29.5 -6 8.8 -2.2 21.6 -4.7 28.5 -5.5 16.7 -2.1 21.3 -3 36 -7.7 6.9 -2.1 19.5 -5.6 28 -7.8 53.4 -13.3 72.1 -17.9 77 -18.9 14.3 -2.8 65.7 -6.2 69.6 -4.6 1.8 0.7 1.8 0.7 -0.1 1.5 -1.5 0.6 -0.8 0.8 2.5 0.8 2.5 0 3.7 -0.2 2.8 -0.5 -1 -0.2 -1.8 -1.1 -1.8 -1.9 0 -1.1 2.6 -1.4 14.3 -1.5 7.8 -0.1 16.6 -0.4 19.6 -0.7 l5.4 -0.7 2.9 -10.5 c1.5 -5.8 2.8 -10.9 2.8 -11.5 0 -1.3 -23.9 -1.1 -35 0.4 -12.1 1.6 -19 1.5 -19 -0.3 0 -0.8 0.8 -1.7 1.8 -1.9 0.9 -0.3 -0.3 -0.5 -2.8 -0.5 -2.5 0 -3.7 0.2 -2.7 0.5 0.9 0.2 1.7 1.1 1.7 1.9 0 1.1 -1.5 1.4 -6.2 1.4 -3.5 0 -11.2 0.7 -17.3 1.4 -6 0.8 -16.4 1.6 -23 1.8 l-12 0.3 -0.3 -3 c-0.2 -1.6 0.1 -6.1 0.7 -10 0.6 -3.8 1.3 -9.2 1.7 -11.9 l0.6 -4.9 -13.9 0.8 c-21.9 1.1 -22.2 1.2 -25.1 6.5 -1.4 2.5 -3.7 6.1 -5.2 8 -1.5 1.9 -4.9 6.9 -7.5 11 -5 7.9 -30.9 34.4 -35.3 36.1 -3 1.2 -11.4 1.2 -14.4 0 -3.8 -1.5 -30.3 -28.1 -34.3 -34.6 -2.1 -3.3 -6 -9 -8.7 -12.6 -2.6 -3.7 -5.3 -8 -5.9 -9.7 -1 -2.9 -1.4 -3.1 -7.7 -3.8 -3.7 -0.4 -18.3 -0.4 -32.5 -0.1 l-25.8 0.6 0.7 -18.2 c0.4 -12.1 0.3 -21.6 -0.5 -28.5 -1.8 -15.1 -2.7 -14.2 14.7 -14.1 8.1 0.1 15.2 0.1 15.8 0 1.5 -0.1 -13.5 -27.2 -22.9 -41.5 l-7.2 -10.9 -2.2 13.4 c-2 11.8 -4.2 39.3 -4.3 53.2 0 3.4 -0.4 4.7 -1.4 4.7 -0.8 0 -1.7 -0.8 -1.9 -1.7 -0.3 -1 -0.5 0.9 -0.5 4.2 0 4.1 0.2 5.4 0.8 4 1.7 -4.2 2.2 1.7 1.8 21.5 l-0.4 20 5.8 0 c4.4 0 5.8 0.4 5.8 1.4 0 0.8 -0.8 1.7 -1.7 1.9 -1 0.3 0 0.5 2.2 0.5 2.8 0 3.4 -0.2 2.1 -0.7 -1.1 -0.4 -1.5 -1 -1 -1.4 1.5 -0.9 16 -2.9 21.9 -3.1 l4.9 -0.1 1.2 9.5 c4.1 31.7 5.4 53.8 3.2 55.1 -1.8 1.2 -6.2 1.1 -9.5 -0.2 -2.6 -1 -2.7 -1.2 -0.8 -1.9 1.4 -0.6 0.5 -0.8 -3 -0.8 -2.7 0 -4.2 0.2 -3.2 0.5 0.9 0.2 1.7 1.1 1.7 1.9 0 1.2 -3 1.4 -17.2 1.4 -9.5 0 -23 0.5 -29.9 1.2 -12.4 1.1 -18.8 0.6 -14.4 -1.2 1.5 -0.6 0.8 -0.9 -2.5 -0.9 -3.3 0 -4 0.3 -2.5 0.9 3.7 1.5 -2.9 3 -13.3 3 -10 0.1 -20.8 1 -39.2 3.3 -10.3 1.3 -10.7 1.5 -18.5 6.9 -12.9 8.9 -24 14.3 -39 18.9 -13.4 4.1 -14.6 4.3 -27.1 4.4 l-13 0 -5.1 -3.9 c-5.6 -4.2 -5.5 -4.1 -6.9 -20.6 l-0.7 -8.1 -3.7 5.9 c-4.4 7 -9.3 21.1 -9.3 26.9 0 8.1 5.2 12 20.1 14.9 4.2 0.8 9.6 1.9 11.8 2.4 2.3 0.5 9 1.2 15 1.6 6 0.4 11.8 1 12.9 1.4 3.3 1.3 22.2 -0.1 36 -2.5z m-35.7 -32.6 c14.3 -4.4 24.9 -9.9 41.7 -21.4 18.2 -12.6 42.4 -36.2 46.1 -45 1.9 -4.6 0.3 -6 -7.5 -6.8 -9.4 -1 -9.6 -0.8 -9.6 10.3 -0.1 8.6 -0.3 10 -3 15 -5.1 9.4 -20 22.3 -31.9 27.5 -5.6 2.5 -26.5 7.5 -31.2 7.5 -4.2 0 -9.9 -2.9 -11.8 -6.1 -1.9 -3.2 -1.9 -3.6 0 -21.9 l0.6 -5.5 -6.6 6.5 c-11.2 10.9 -21.5 27.7 -21.6 35.1 0 2.5 4.7 8 8 9.2 3.2 1.2 15 -0.7 26.8 -4.4z m531.6 -3 c6 -1.1 14.6 -3.4 19.1 -5 14.3 -5.2 36.6 -19.6 43.6 -28.2 1.4 -1.8 7.7 -10.8 14 -20.2 15 -22.2 15.6 -24.1 17.6 -52.8 l1.4 -21.8 -2.6 -11.2 c-1.4 -6.2 -3.3 -13.8 -4.2 -16.9 -1.6 -5.9 -3.3 -7.7 -3.3 -3.5 -0.1 3.6 -3.5 10.1 -6.9 12.9 -2.9 2.5 -3.1 3.1 -3.1 9.5 0 7.1 -2.7 19.9 -5.5 26.8 -1 2.2 -5.1 10.1 -9.3 17.5 -20.4 36.5 -34.2 56 -51 72.8 -10.3 10.1 -10.4 10.2 -15.2 10.2 -5.2 0 -6 -0.8 -6 -6.3 0 -2.1 2.6 -7.3 8.4 -16.6 10.5 -17.2 9.9 -15.9 19.1 -39.1 8.7 -22 11.6 -30 10.9 -30 -0.2 0 -2.1 1.1 -4.2 2.5 -2 1.3 -8.5 4.2 -14.5 6.5 -8.9 3.3 -11.9 4 -18 4 -3.9 0 -7.7 -0.4 -8.3 -0.8 -2.4 -1.5 -3.4 -5.4 -3.5 -12.9 l-0.1 -7.8 -1.9 6.5 c-1.1 3.6 -3.3 13.3 -4.9 21.5 -1.7 8.3 -4.8 21.8 -6.9 30 -5.2 20.1 -5.3 21 -3.6 28.8 2.8 13.5 8.2 21.3 16.7 24.4 4.8 1.7 10 1.5 22.2 -0.8z m-590.8 -18.9 c2.7 -4.5 5.9 -8.9 7.2 -9.9 1.3 -0.9 7.3 -5.4 13.5 -10.1 13.2 -10.1 18.2 -13.2 34.2 -21.6 22 -11.4 46.5 -19.1 58.6 -18.2 2.7 0.1 4.9 0 4.9 -0.3 0 -0.4 3.8 -1 8.5 -1.4 l8.5 -0.7 -3 -3.6 c-4.4 -5.6 -10.6 -21.8 -13.4 -35.5 -1.4 -6.7 -3.8 -18.5 -5.4 -26.2 -1.7 -8.1 -3.5 -20.8 -4.2 -30 -0.6 -8.8 -1.8 -20 -2.5 -25 -5 -32.3 -9.7 -118 -6.6 -120 0.5 -0.3 1.2 0.3 1.4 1.2 0.3 1 0.5 -5.4 0.5 -14.2 0 -9.3 -0.3 -15.2 -0.8 -14 -0.7 1.9 -0.8 1.9 -1.5 0.1 -1.2 -2.8 0.2 -22.1 3 -42.1 1.4 -9.9 3.2 -25 4.1 -33.5 1.9 -20 2.7 -24.5 7.4 -42 2.2 -8 4.7 -18.5 5.6 -23.5 0.9 -4.9 3.5 -16.2 5.7 -25 6.8 -27.1 6.8 -27 5.2 -35 -2.6 -13.5 -6.8 -20.3 -14.9 -24.1 -2.8 -1.3 -7 -2.4 -9.2 -2.4 -6.5 0 -27.4 4.6 -36.1 7.9 -13.4 5.2 -34.8 19.3 -41.4 27.4 -1.4 1.8 -7.8 10.9 -14.2 20.4 -14.8 22 -15.4 23.6 -17.4 52.6 l-1.5 21.8 2.7 11.7 c1.5 6.4 4.6 17.6 7 24.7 4.5 13.3 11.8 47.2 13 60 0.3 3.9 1.5 14.2 2.5 23 2.1 18.4 3.6 46.8 2.4 48.6 -0.5 0.9 -0.9 0.7 -1.5 -0.7 -0.5 -1.3 -0.8 -0.5 -0.8 2.6 0 3.3 0.3 4 0.9 2.5 1.3 -3.1 1.9 -0.3 2.3 10 0.1 5 0.4 1 0.5 -8.7 0.1 -9.8 0.7 -23.4 1.3 -30.4 1.8 -20 -1.1 -55.3 -6.5 -79.5 -3.3 -14.7 -10.2 -35.8 -15.6 -47.9 -2.4 -5.2 -4.5 -11.6 -4.7 -14.2 -0.4 -4 0 -5.4 3.2 -10.5 5.8 -9 10.6 -14.3 22.9 -25.2 10.9 -9.7 11.6 -10.1 16 -10.1 l4.6 0 0 4.4 c0 2.5 -1.5 9.8 -3.4 16.3 -1.9 6.5 -3.9 15.2 -4.6 19.4 -1.2 7.6 -1.1 24.1 0.2 25.4 1 1 6.4 -2.9 13.6 -9.9 l6.3 -6.1 -4.3 -0.5 -4.3 -0.5 0.2 -5.5 c0.1 -3 0.5 -8.4 0.8 -11.8 0.4 -3.5 0.2 -14.9 -0.5 -25.3 l-1.2 -18.9 13 -19.7 c7.1 -10.9 14.4 -22.4 16.2 -25.6 l3.2 -5.8 5.2 0.3 c4.9 0.3 5.1 0.4 5.4 3.4 0.2 1.6 -1.5 9.1 -3.6 16.5 -4 13.9 -5.5 19.9 -4.7 19.9 0.2 0 4.1 -4.3 8.6 -9.5 l8.2 -9.6 4.6 0.3 4.6 0.3 0.3 4.5 c0.2 2.4 -0.1 6.3 -0.7 8.5 -0.6 2.2 -1.7 7.8 -2.6 12.4 -1.6 8.1 -1.9 8.8 -7.7 15.3 l-6 6.8 3.6 0 c5.3 0 6 2.5 5.2 19 -0.9 20.5 -11.4 76 -14.8 78.1 -2.5 1.6 -7.4 0.9 -10.8 -1.6 -1.9 -1.4 -3.9 -2.5 -4.6 -2.5 -1.8 0 -11.5 15.4 -12.4 19.7 -0.5 2.1 -1.3 8.8 -1.9 14.8 -1.1 11 -1 12.4 2.5 45 0.7 6.7 2.7 12.5 4.3 12.5 0.6 0 1.1 2 1.1 4.5 0 4 -0.7 5.4 -6.2 12.4 -7.2 9.1 -20.2 30.1 -22.2 35.7 -1.3 3.8 -1.4 3.9 -6.5 4.2 -4.6 0.3 -5.3 0.1 -5.8 -1.7 -1.2 -4.6 -1.8 -1.5 -2.1 10.2 -0.3 15.4 -2.9 52.2 -4.2 60.2 -0.6 3.3 -1.6 10.5 -2.4 16 -0.7 5.5 -3 16.1 -4.9 23.5 -2 7.4 -4.8 20.9 -6.2 30 -2.3 15 -4.8 26.1 -10.4 46.7 -1.1 3.9 -2.5 10.6 -3 14.8 -1.2 8.4 -1.5 34.3 -0.5 39.4 l0.7 3.2 1.6 -4.9 c1 -2.8 3.9 -8.7 6.7 -13.2z m70.4 -3 c1 0 0.7 -0.5 -0.8 -1.6 -1.2 -0.8 -2.2 -2.5 -2.2 -3.6 0 -2.1 0 -2.1 -2.5 0.2 -3.9 3.6 -2.8 6.5 2 5.5 1.1 -0.3 2.7 -0.5 3.5 -0.5z m17.9 -5.6 c6.7 -3 17.5 -11 23 -17 3.9 -4.1 9.1 -13.3 9.1 -16 0 -4 -8.7 -5.7 -19.5 -3.8 -10 1.7 -9.3 1.7 -9.8 -0.3 -0.3 -1 -0.5 0.5 -0.5 3.2 0 2.8 0.2 4.2 0.5 3.3 0.2 -1 1.1 -1.8 1.9 -1.8 1 0 1.4 1.5 1.4 5.9 0 5.8 -1.4 9 -2.3 5.4 -0.3 -1 -0.5 0 -0.5 2.2 0 2.2 0.2 3.2 0.5 2.2 0.8 -3.1 2.3 -0.7 2.3 3.7 0 3.6 -0.6 4.7 -4.2 8.3 -2.4 2.2 -6.1 5 -8.3 6.2 -5.1 2.8 -0.9 1.8 6.4 -1.5z m67.8 1.6 c13.7 -0.6 28.9 -1.5 34 -2 5.1 -0.6 16.4 -1 25.1 -1 8.7 0 19.4 -0.3 23.7 -0.7 l7.7 -0.6 -0.5 -10.1 c-0.6 -9.9 -2.2 -24.6 -3.2 -29.6 l-0.6 -2.5 -19.5 -0.2 c-13 -0.1 -20 -0.5 -20.8 -1.3 -1.3 -1.3 -1.3 -1.3 0.2 -41 0.6 -16.2 1.1 -31.2 1.2 -33.2 0 -4 2.4 -5.4 3.3 -2 0.3 0.9 0.5 -0.3 0.5 -2.8 0 -3.3 -0.2 -4 -0.8 -2.5 -3.2 7.8 -2.3 -17.6 1.5 -40 1.3 -8.2 2.5 -16.5 2.5 -18.2 0 -2.2 -3.6 -10.6 -10.7 -24.9 l-10.8 -21.6 -7.5 0.5 c-7.9 0.6 -13.8 2.9 -20 7.6 -1.9 1.4 -5.6 4 -8.2 5.6 -2.6 1.7 -8.8 5.8 -13.7 9.3 -8.2 5.7 -9 6.5 -8.6 9 0.2 1.5 0.7 8.8 1.1 16.3 0.3 7.5 0.9 14.1 1.3 14.8 0.6 0.9 1.6 0.7 4.2 -0.8 1.9 -1.1 8.6 -4 15 -6.6 9 -3.5 12.7 -4.6 16 -4.3 l4.4 0.3 0.7 5.5 c0.4 3 0.7 21.1 0.6 40.3 -0.1 27.4 -0.4 34.7 -1.4 34.7 -0.7 0 -1.5 -0.8 -1.7 -1.7 -0.3 -1 -0.5 0.2 -0.5 2.7 0 3.3 0.2 4 0.8 2.5 l0.8 -2 0.8 2 c1.1 2.6 1.1 39.8 0.1 44.7 -1 4.9 -3.1 6.8 -7.2 6.8 -5.8 0 -6.5 0.7 -6.5 6.2 0 9 -4.3 15.9 -18.7 30.5 -7 7 -12 12.4 -11 12 0.9 -0.3 12.8 -1.1 26.4 -1.7z m-26.7 -4.5 c1.9 -1.9 3.2 -3.5 2.9 -3.5 -0.3 0 -2 1.6 -3.9 3.5 -1.9 1.9 -3.2 3.5 -2.9 3.5 0.3 0 2 -1.6 3.9 -3.5z m-4.5 -1.5 c2.1 -2.2 3.7 -4 3.4 -4 -0.3 0 -2.3 1.8 -4.4 4 -2.1 2.2 -3.7 4 -3.4 4 0.3 0 2.3 -1.8 4.4 -4z m-88.4 -6.7 c1.3 -1.5 1.7 -2.2 0.8 -1.5 -0.9 0.6 -2 0.8 -2.5 0.4 -0.5 -0.4 -0.6 -0.3 -0.2 0.2 0.4 0.5 0.3 1.5 -0.3 2.3 -2.1 2.5 -0.3 1.3 2.2 -1.4z m320.1 -14.2 c8.9 -8.7 15.6 -16.1 17.8 -19.8 1.9 -3.2 5.4 -8.4 7.8 -11.6 2.4 -3.2 5.4 -8.3 6.7 -11.5 2.9 -7.1 23.1 -46 27.3 -52.6 1.8 -2.8 3.2 -5.8 3.2 -6.7 0 -0.9 0.6 -1.9 1.4 -2.2 0.8 -0.3 5.3 -7.6 10 -16.2 4.8 -8.6 13.2 -22.5 18.8 -30.8 9.2 -13.6 31.2 -54.4 40.8 -75.5 l2.9 -6.3 -4.3 4.5 c-5.3 5.4 -19.6 16 -24.6 18.2 -3 1.4 -4.2 2.8 -6.5 8.2 -6.2 14.2 -17.9 28 -31.2 37 -2.9 1.9 -5.3 3.7 -5.3 3.9 0 0.3 0.9 1.8 2 3.3 2.9 4.1 5 10.6 5 15.5 0 4 -0.4 4.6 -6.3 9.8 -8.3 7.3 -20 12.9 -25.9 12.5 -4.2 -0.3 -4.4 -0.4 -7.5 -6.8 -2.1 -4.1 -3.3 -5.7 -3.3 -4.3 0 2.8 -1.7 3.9 -2.3 1.6 -0.3 -1 -0.5 0 -0.5 2.2 0 2.2 0.2 3.2 0.5 2.2 0.7 -2.8 2.3 -0.9 2.3 2.8 0 5.6 -1.1 6.2 -15.7 9.5 -12.6 2.7 -18.7 2.7 -20.7 -0.2 -2.1 -3 -2.2 -14.8 -0.2 -14.8 0.8 0 1.7 0.8 1.9 1.8 0.3 0.9 0.5 -2.1 0.4 -6.8 0 -4.7 -0.2 -7.5 -0.4 -6.2 -0.3 1.5 -1.1 2.2 -2.8 2.2 -2.9 0 -4.2 -1.7 -1.8 -2.3 1 -0.3 -1.1 -0.5 -4.7 -0.5 -3.6 0 -5.7 0.2 -4.7 0.5 2.4 0.6 1.1 2.3 -1.8 2.3 -1.7 0 -2.5 -0.7 -2.8 -2.2 -0.2 -1.3 -0.4 2 -0.4 7.2 -0.1 5.2 0.1 8.7 0.4 7.8 0.2 -1 1.1 -1.8 1.9 -1.8 2 0 1.9 9.8 -0.2 12.8 -2 2.9 -8.1 2.9 -20.7 0.2 -14.4 -3.2 -15.7 -4 -15.7 -9 0 -3.3 1.6 -4.9 2.3 -2.3 0.3 1 0.5 -0.4 0.5 -3.2 0 -3.5 -0.2 -4.4 -0.8 -3 -0.8 1.9 -0.8 1.9 -1.7 -0.4 -0.9 -2.2 -1 -2.1 -2.7 2.2 -1.4 3.7 -1.5 5.5 -0.7 9.4 0.5 2.6 1.6 8.3 2.5 12.5 6.4 31.7 26 97.1 32.2 107.5 3.1 5.2 10.7 13.2 12.6 13.3 0.5 0 7.2 -6.3 15 -13.9z m-25.8 9.4 c-1.4 -1.9 -2.9 -3.5 -3.1 -3.5 -0.5 0 0.7 1.8 3.6 5.3 2.6 3.1 2.3 1.8 -0.5 -1.8z m-252.3 -3.5 c6.6 0 6.4 0.2 5.3 -8.3 l-0.6 -4.5 -3.8 1.3 c-6.5 2.3 -11.7 5.4 -12.3 7.2 -0.2 1 -1.2 3.5 -2.1 5.5 l-1.6 3.7 4.6 -2.4 c3.5 -1.8 6.2 -2.5 10.5 -2.5z m284.4 -6 c2.7 -2.7 4.7 -5 4.4 -5 -0.3 0 -2.7 2.3 -5.4 5 -2.7 2.8 -4.7 5 -4.4 5 0.3 0 2.7 -2.2 5.4 -5z m-239.5 -19.6 c0 -0.2 -1.2 -0.4 -2.6 -0.4 -1.4 0 -2.3 0.4 -2 0.9 0.6 0.8 4.6 0.4 4.6 -0.5z m338.7 -0.9 c5.7 -0.8 18.1 -1.7 27.7 -1.9 9.6 -0.3 20.3 -1 23.8 -1.5 3.5 -0.6 13 -1 21.1 -1 8.2 0.1 15 -0.1 15.3 -0.4 0.7 -0.6 4.3 -20.1 3.8 -20.6 -0.2 -0.2 -2.7 -0.6 -5.6 -0.8 -7.1 -0.6 -8.9 -1.3 -6.3 -2.3 1.5 -0.7 1 -0.8 -2 -0.8 -2.2 0 -3.2 0.2 -2.2 0.5 0.9 0.2 1.7 1.1 1.7 1.9 0 1.1 -1.7 1.4 -7.7 1.4 -12.1 0.1 -35.5 1.7 -42.2 3.1 -3.3 0.6 -7.1 0.9 -8.6 0.5 -2.1 -0.5 -2.5 -1.2 -2.5 -4.4 0 -3.5 0.8 -4.6 8.3 -11.9 4.5 -4.4 10.2 -9.3 12.7 -10.8 23.5 -14.6 45.1 -40.4 56.6 -67.5 7.5 -17.8 9.2 -33.6 5.3 -48.6 -4.3 -16.5 -14 -27.6 -31.9 -36.3 -7.9 -3.8 -9.2 -4.1 -16.5 -4.1 -4.4 0 -8.5 0.4 -9.1 0.8 -0.8 0.5 -27.8 52.9 -33.2 64.3 -0.1 0.4 2 0.2 4.8 -0.4 4.7 -0.9 5 -1.1 5 -4.1 0 -1.7 0.6 -5.3 1.3 -8.1 1.3 -4.7 1.5 -5 5.3 -5.7 2.1 -0.4 10 -0.7 17.5 -0.7 11.1 -0.1 13.9 0.2 14.9 1.4 1.4 1.7 1 11.2 -1.3 27.9 l-1.4 9.9 -17 16.6 c-9.3 9.1 -24.2 24.3 -33.1 33.8 -17.6 18.7 -16.6 17 -17.7 32.3 -0.3 4.7 -1.5 14 -2.5 20.8 -1.1 6.7 -2 13.6 -2 15.2 0 2.8 0.3 3 3.8 3 2 0 8.3 -0.7 13.9 -1.5z m-159.6 -20.1 c-5.8 -19.6 -13.4 -49.3 -16.6 -64.9 -3 -14 -3 -14.1 -9 -17 -3 -1.4 -5.8 -2.5 -6.3 -2.5 -0.5 0 -4.3 -2.9 -8.5 -6.5 -7.5 -6.4 -7.7 -6.7 -7.7 -11 0 -5 3 -13.7 5.7 -16.7 1.7 -1.9 1.7 -2 0 -2.9 -0.9 -0.6 -5.1 -3.7 -9.2 -7 -11.8 -9.5 -18 -17 -23.8 -29.1 -3.4 -7 -5.9 -11 -7.2 -11.4 -3.9 -1.3 -18.8 -11.9 -24.5 -17.5 -5.6 -5.5 -5.8 -5.6 -4.4 -2.3 0.8 1.9 8 16.4 16.1 32.2 10.1 19.8 18 33.8 25.5 45 6 9 13.6 21.3 17 27.5 3.3 6.2 10.2 18.2 15.3 26.7 5 8.5 13.8 24.7 19.4 36 5.7 11.3 11 21.9 11.9 23.7 1.9 3.6 11.6 18.1 11.9 17.8 0.2 -0.1 -2.4 -9.1 -5.6 -20.1z m-182.3 16.9 c-1 -0.2 -2.6 -0.2 -3.5 0 -1 0.3 -0.2 0.5 1.7 0.5 1.9 0 2.7 -0.2 1.8 -0.5z m24 -1 c-1 -0.2 -2.6 -0.2 -3.5 0 -1 0.3 -0.2 0.5 1.7 0.5 1.9 0 2.7 -0.2 1.8 -0.5z m18.1 -5.9 c1.4 -1.2 2 -13.4 1.5 -28.1 -0.6 -15.3 -0.5 -17.3 0.9 -17.3 0.8 0 1.8 0.8 2 1.8 0.3 0.9 0.5 -1.4 0.5 -5.3 0 -3.8 -0.2 -6.2 -0.5 -5.2 -0.2 0.9 -1.1 1.7 -1.8 1.7 -1.2 0 -1.3 -4.6 -0.8 -29.3 0.4 -20.4 0.3 -29.6 -0.5 -30 -1.3 -0.9 -15.6 5.1 -23.4 9.8 -4.6 2.7 -7 3.5 -10.9 3.5 -4.2 0 -4.9 -0.3 -5.4 -2.2 -0.8 -3.7 -2.5 -24.8 -2.5 -31 0 -5.5 1.4 -8.6 2.3 -5.1 0.3 1 0.5 -0.2 0.5 -2.7 0 -2.5 -0.2 -3.7 -0.5 -2.7 -0.2 0.9 -1.1 1.7 -1.9 1.7 -1.1 0 -1.4 -1.7 -1.4 -7.4 l0 -7.5 8.3 -5.7 c33 -23 35.1 -24.1 46.5 -25 4.5 -0.4 8.2 -0.9 8.2 -1.1 0 -0.2 -1.3 -3 -3 -6.3 -2.5 -4.9 -3 -7.2 -3 -13 0 -4 0.7 -8.6 1.6 -10.9 1.5 -3.9 1.5 -3.9 -2 -8.9 -5.4 -7.5 -8.2 -14.5 -11 -27.7 -1.4 -6.6 -3.2 -14.5 -4.1 -17.5 -2 -7.2 -2.1 -19 -0.1 -19 0.8 0 1.7 0.8 1.9 1.8 0.3 0.9 0.5 -0.8 0.5 -3.8 0 -3 -0.2 -4.7 -0.5 -3.7 -0.2 0.9 -1 1.7 -1.7 1.7 -0.8 0 -1.7 -5 -2.9 -15.2 -1.8 -16.5 -4.6 -29.5 -7.7 -37 -1.1 -2.6 -2 -5.8 -2 -7.2 0 -4.7 0.9 -5.6 5.6 -5.6 l4.4 0 2.8 6.3 c3.2 6.9 5.3 8.9 20 18.5 14.9 9.8 17.9 10.7 35.7 10.4 8.3 -0.1 16.6 0.2 18.5 0.6 3.1 0.7 3.7 0.4 6.3 -2.5 3.5 -4 22.5 -19.7 24.9 -20.6 0.9 -0.3 1.9 -2.1 2.3 -3.9 0.7 -3.2 5.7 -16.9 9.2 -25.3 6.9 -16.4 29.5 -44.3 45.8 -56.4 14.4 -10.7 32.7 -17.1 49 -17.1 13.7 0 21.5 5.2 30.7 20.4 2.6 4.3 5.2 9.5 5.8 11.7 0.6 2.1 2.4 6.9 4 10.7 2.6 6 3.1 9 4.1 23.2 1.2 14.8 1.1 16.8 -0.6 23.4 -2.8 11.6 -2.3 12.9 9.9 23 5.7 4.7 11.5 9.8 12.8 11.4 2.1 2.6 2.7 2.7 6.3 1.9 2.2 -0.5 9.7 -0.6 16.6 -0.3 15.6 0.7 21.4 -0.8 34 -8.7 16.5 -10.3 19.8 -13.3 22.9 -20.3 l2.9 -6.4 4.6 0 4.7 0 -0.5 5.8 c-0.3 3.1 -1.9 10.7 -3.6 16.7 -1.9 6.8 -3.7 16.9 -4.8 26.3 -1.2 10.5 -2 15.2 -2.9 15.2 -0.7 0 -1.5 -0.8 -1.7 -1.7 -0.3 -1 -0.5 1.4 -0.5 5.2 0 3.9 0.2 6.2 0.5 5.3 0.2 -1 1.1 -1.8 1.9 -1.8 2.4 0 1.7 9.7 -1.6 22.3 -1.6 6.4 -3 12.5 -3 13.6 0 4.6 -5.3 18.5 -9.6 24.8 l-4.5 6.7 1.6 3.8 c0.8 2.1 1.5 5.6 1.5 7.7 l0 3.9 12.3 0.4 12.2 0.5 9.4 4.9 c7.1 3.7 11.4 6.8 17.1 12.4 8.4 8.3 11.9 14.4 14.9 26 l2 7.5 0 -20 c0.1 -31 -3.1 -79.2 -7.3 -108.5 -0.8 -5.8 -2 -17.2 -2.7 -25.5 -1.6 -21.8 -10.3 -63.6 -16 -77.4 -4 -9.8 -4.7 -10.7 -14.1 -20 l-9.8 -9.8 0 -6.8 c0 -11.4 3.3 -16.8 21.2 -34.5 11.4 -11.4 18.2 -17.1 28.6 -24.3 18.7 -12.9 28.2 -17.7 44.7 -22.8 13.4 -4.1 14.6 -4.3 27 -4.3 l13 -0.1 5 3.9 c5.6 4.3 5.8 4.9 7 19.9 l0.7 8.8 3.9 -6.3 c4 -6.4 8.9 -19.5 8.9 -23.6 0 -2.6 2.6 -3 3.3 -0.4 0.3 0.9 0.5 -0.3 0.5 -2.8 0 -2.5 -0.2 -3.7 -0.5 -2.7 -0.6 2.4 -3.3 2.1 -3.3 -0.4 0 -3.4 -5.6 -7.7 -12.9 -9.9 -7.9 -2.4 -16.6 -3.8 -32.1 -5.1 -6.3 -0.5 -12.8 -1.4 -14.5 -1.9 -4.3 -1.2 -24.4 0.3 -42 3.3 -8.2 1.4 -19.5 3 -25 3.6 -5.5 0.7 -15.6 2.5 -22.5 4.1 -6.9 1.6 -17.8 3.6 -24.4 4.5 -7.6 1 -16.8 3.1 -26 6 -16.4 5.2 -20.4 6.1 -34.6 8.1 -5.8 0.8 -17.5 3.2 -26 5.3 -8.5 2.2 -21.3 4.6 -28.5 5.5 -17.7 2.2 -21.5 3.1 -39.7 8.7 -8.7 2.7 -20.4 6 -26 7.3 -5.7 1.3 -22.9 5.6 -38.3 9.5 -15.4 3.9 -31.1 7.8 -35 8.6 -11.1 2.3 -38.6 4.7 -55.7 4.8 -8.7 0.1 -15.8 0.5 -15.8 1 0 0.4 -6.9 0.8 -15.2 0.8 -8.4 0.1 -18.2 0.4 -21.7 0.8 l-6.5 0.6 -4.3 16.5 c-2.4 9.1 -5 20.6 -5.8 25.5 -0.9 5 -3.6 16.4 -6 25.5 -5.3 20 -6.1 24.4 -8 44.1 -0.8 8.5 -2.6 23.5 -4 33.4 -1.5 9.9 -2.9 24.4 -3.2 32.3 -0.4 10.6 -0.9 14.2 -1.9 14.2 -0.7 0 -1.5 -0.8 -1.7 -1.7 -0.3 -1 -0.5 1.8 -0.5 6.2 0 4.4 0.2 7.2 0.5 6.3 0.2 -1 1.1 -1.8 1.9 -1.8 1.2 0 1.4 3 1.4 17.8 0 27.5 3.6 77.2 7.4 103.7 0.8 5.5 2 16.8 2.6 25 1.2 15.3 2.2 21.1 8.4 50.7 3.2 15 7 26.9 11.2 35 0.8 1.6 4.2 5.5 7.5 8.8 6 5.9 6 5.9 10.7 5.3 2.6 -0.3 4.9 -0.7 5.1 -0.9z m115.9 -17.1 c-1.6 -3.6 -16.2 -31.7 -18 -34.7 l-2.3 -3.8 -14.3 -0.2 c-13.8 -0.1 -14.3 0 -13.8 1.9 0.3 1.1 0.6 10 0.6 19.8 l0 17.7 24.1 0 c13.2 0 23.9 -0.3 23.7 -0.7z m145.3 -0.3 l3.8 0 -0.2 -20.5 c-0.1 -11.3 -0.3 -20.5 -0.4 -20.5 -0.8 0 -22.3 40.2 -22.3 41.8 0 0.3 3.4 0.2 7.7 -0.2 4.2 -0.3 9.3 -0.6 11.4 -0.6z m15.8 -21 c0.2 -10.1 1.3 -12.2 13.3 -24.3 6.1 -6.2 15.5 -16.2 20.8 -22.2 5.3 -6.1 11.5 -12.6 13.6 -14.4 2.1 -1.9 7.6 -6.9 12 -11.1 l8.1 -7.7 0.7 -6.9 c0.4 -3.8 1.1 -8.6 1.6 -10.6 l0.8 -3.8 -7.3 0 c-6.9 0 -10.7 -1.3 -6.8 -2.3 1 -0.3 0 -0.5 -2.2 -0.5 -2.2 0 -3.2 0.2 -2.2 0.5 1.9 0.5 2.2 2.3 0.8 3.8 -0.6 0.6 -1.5 4.1 -2.1 8 -0.6 3.8 -1.3 7.1 -1.5 7.3 -0.2 0.2 -4.1 1.2 -8.7 2.2 -4.5 1.1 -10.9 2.8 -14.1 3.8 -5.5 1.8 -6 2.2 -11.3 10.1 -3 4.5 -8.4 13.4 -11.9 19.7 -5.3 9.5 -6.3 11.9 -5.5 13.5 0.8 1.3 0.8 6.2 0 15.7 -1.1 14.9 -0.2 40.7 1.1 30.2 0.4 -3 0.7 -8 0.8 -11z m98.9 15.3 c-1 -0.2 -1.8 -1.1 -1.8 -1.9 0 -1.1 2.1 -1.4 10.5 -1.4 l10.4 0 1.1 -4.2 c0.6 -2.4 1.5 -5.6 2 -7.3 2 -6.7 4 -18.7 5 -31 0.6 -7.1 2 -19 3.1 -26.3 1 -7.3 1.9 -13.8 1.9 -14.5 0 -0.7 -1.9 3.5 -4.3 9.3 -11.5 28.5 -30.8 52 -57.4 70.1 -4 2.7 -7.3 5.2 -7.3 5.5 0 0.3 6.7 0.2 14.9 -0.2 14.9 -0.7 20.8 -0.1 16.6 1.6 -1.5 0.6 -0.8 0.8 2.5 0.8 2.5 0 3.7 -0.2 2.8 -0.5z m45.9 -38.4 c4.6 -5.9 4.7 -6 9.2 -5.7 l4.6 0.3 -0.1 5 c0 2.8 -0.8 6.8 -1.8 8.9 l-1.7 3.9 3.1 -0.7 c5.3 -1 14.2 -5 20.1 -8.9 l5.6 -3.7 -2.1 -4.3 c-1.6 -3.1 -2.2 -6.5 -2.4 -13.2 -0.4 -11.8 1.5 -15.8 11.3 -23.2 8.5 -6.5 13.7 -8.3 23.2 -8.3 8 0 10.2 0.7 14.6 4.9 l2.9 2.6 -0.6 -2.5 c-3.3 -14.7 -4.9 -24.2 -6.6 -39.5 -1.1 -9.9 -2.4 -21.1 -2.9 -25 -0.5 -3.8 -1.1 -14.4 -1.3 -23.5 -0.1 -9.1 -0.6 -16.7 -1 -17 -1.5 -1.2 3.5 -87 6.2 -104 1 -6.9 2.2 -15 2.5 -18 0.4 -3 2.4 -12.2 4.5 -20.5 2.1 -8.2 5 -22.5 6.5 -31.7 2.4 -15.2 4.7 -25.3 10.4 -46.5 1.1 -3.9 2.5 -10.6 3 -14.8 1.3 -8.8 1.3 -36.8 0.1 -40.5 -0.7 -2.1 -0.8 -2.2 -0.9 -0.5 -0.1 1.1 -1.5 4.7 -3.1 8 -5.8 11.6 -9.7 16.9 -15.3 21 -3.1 2.2 -9.1 6.7 -13.4 10 -10.4 8 -14.5 10.6 -29.8 18.5 -15.8 8.3 -34.5 15.4 -45.7 17.4 -4.6 0.8 -14.5 2 -22 2.7 l-13.7 1.2 2.9 3.6 c1.6 2 4.7 8.1 6.9 13.6 l4 10 0.1 -5.7 c0 -3.1 0.5 -6.9 1.2 -8.3 0.7 -1.5 4.5 -4.9 8.5 -7.6 6 -4 8.1 -4.9 11.8 -4.9 2.4 0 4.6 0.4 4.9 0.9 0.3 0.4 1 4.1 1.7 8.2 0.6 4.1 1.2 7.5 1.4 7.7 0.1 0.2 3.4 -1.7 7.1 -4.1 3.8 -2.5 9.2 -5.6 12 -7 2.8 -1.4 9.5 -6.4 14.8 -11 10.8 -9.3 20 -14.7 25.3 -14.7 6.6 0 7.9 1.8 10.3 14.5 0.6 3.3 2.3 9.8 3.7 14.4 3.2 10.9 3.3 9.7 -7.3 58.9 -4.8 22.3 -20.4 70.3 -23.3 72.2 -0.6 0.3 -4.6 1.2 -8.8 2 -6.9 1.2 -7.4 1.4 -4.3 1.9 3.3 0.6 3.5 0.8 3.8 4.9 0.3 3.5 -0.5 5.9 -4 12.7 l-4.3 8.4 3.1 6.3 3.1 6.2 5.1 -6.9 c2.9 -3.9 7.3 -11 9.8 -15.8 l4.5 -8.8 5.2 0.3 c5.2 0.3 5.2 0.3 5.5 3.8 0.4 4.5 -3 19.7 -6.9 31.4 -6.1 18.2 -14.9 31.8 -30.4 46.9 l-5 4.9 6.3 -4.2 c11 -7.3 19.1 -10.1 23.6 -8.4 2.1 0.8 2.1 8 0.1 12.1 -2.1 4.2 -5.5 17.8 -6.3 25.5 -0.6 5.6 -1 6.3 -3 6.6 -2.8 0.4 -6 5.3 -6.8 10.2 -0.9 6.1 -3.5 17.4 -4.4 19.7 -0.5 1.2 -2.6 3.4 -4.8 4.8 -2.1 1.4 -6.4 5.7 -9.7 9.5 -5.7 6.9 -6 7.1 -9.9 6.8 -4 -0.3 -4.1 -0.4 -4.4 -4.1 -0.2 -2.1 0.6 -7.8 1.7 -12.5 1.7 -7.4 4.1 -27.4 4.1 -35 0 -1.7 0.7 -2.4 3.1 -2.9 2 -0.4 3.4 -1.4 4 -3 1.2 -3.2 1.2 -7.3 -0.1 -7.3 -0.5 0 -1 -2.3 -1 -5.2 0 -4.7 0.4 -5.6 3.8 -9.2 l3.7 -3.9 -3.6 2.6 c-2.5 1.9 -4.8 2.7 -7.7 2.7 -5.8 0 -6.5 -1.6 -5.6 -14.8 0.4 -6.3 0.2 -14.6 -0.5 -20.2 -1.9 -15.3 -5.1 -33.4 -6.1 -34.4 -0.6 -0.6 -1 -2.8 -1 -5.1 0 -5.1 2.5 -7.7 15.9 -16.4 l9.3 -6.1 -4.1 0 c-7 0 -7.8 -4.9 -3.3 -18.3 1.6 -4.5 3.5 -10.6 4.2 -13.6 0.9 -3.7 2.3 -6.5 4.4 -8.6 6.8 -6.7 12 -32.2 11.4 -55.2 -0.4 -16.4 -1.1 -18.2 -5.5 -13.5 -4.9 5.2 -13.7 12.3 -17.2 13.8 l-3.4 1.4 0.7 9.3 c0.4 5 0.9 15.8 1.3 23.8 l0.6 14.6 -5.4 3.4 c-4.9 3 -6.1 3.4 -12.6 3.4 -8.5 0 -8.2 -0.8 -5.8 14.1 5 30.7 9.8 119.9 6.6 121.9 -0.5 0.3 -1.2 -0.3 -1.4 -1.2 -0.3 -1 -0.5 4.1 -0.5 11.2 0 7.2 0.2 12.2 0.5 11.2 0.2 -0.9 0.9 -1.5 1.4 -1.2 2.2 1.4 0.6 23.1 -4.1 56.5 -1 7.4 -2.4 19.1 -3 26 -0.5 6.9 -1.3 14.1 -1.6 16 -0.6 3.1 -0.3 2.9 2.5 -2.3 1.7 -3.2 5.2 -8.5 7.8 -11.8z m-128.2 2.1 c2.1 -2.2 3.7 -4 3.4 -4 -0.3 0 -2.3 1.8 -4.4 4 -2.1 2.2 -3.7 4 -3.4 4 0.3 0 2.3 -1.8 4.4 -4z m19.5 -14.7 c0 -0.8 -0.9 0 -5 4.5 l-4.5 4.7 4.8 -4.5 c2.6 -2.4 4.7 -4.5 4.7 -4.7z m176 -9.4 c0 -3.6 -1.5 -4.4 -4.5 -2.5 -2.9 1.9 -4.2 6 -2.5 8.1 1.8 2.2 7 -1.9 7 -5.6z m-323.1 -8.6 c-0.1 -2.7 -0.3 -4 -0.6 -3 -0.2 0.9 -1.1 1.7 -1.9 1.7 -1.2 0 -1.4 -2.1 -1.2 -12.2 l0.3 -12.3 5.5 0.2 c3 0.2 8 0.3 11 0.3 3 0 8 -0.1 11 -0.3 l5.5 -0.2 0.3 4.8 c0.2 3.6 0 4.7 -1.2 4.7 -0.8 0 -1.7 -0.8 -1.9 -1.7 -0.3 -1 -0.5 2.9 -0.5 8.7 0 5.8 0.3 9.6 0.7 8.5 0.7 -1.8 0.8 -1.8 1.8 -0.1 0.9 1.7 1.5 1.8 6.4 0.6 10.9 -2.4 11.9 -2.9 11.9 -5.9 0 -1.5 -0.7 -5 -1.5 -7.7 -0.8 -2.7 -1.5 -7.1 -1.5 -9.7 0 -4.6 0.2 -4.9 3.8 -6.4 2 -0.9 6.4 -1.6 9.6 -1.7 l5.9 -0.1 1.3 5.8 c1.6 6.6 5.3 15.7 6.5 15.7 2.2 0 6.5 -2.4 11.8 -6.7 l5.9 -4.7 -1.5 -3 c-0.8 -1.6 -3.5 -4.9 -5.9 -7.4 -3.4 -3.4 -4.4 -5.2 -4.4 -7.7 0 -3.1 0.6 -3.8 8.8 -9.1 21.4 -14 33.5 -30.4 39.1 -53.4 5.7 -23.8 6.9 -45.4 3.3 -63.7 -6.4 -32.4 -14.2 -48.7 -31 -64.3 l-8.7 -8.2 -1.1 4.4 c-1.4 5.4 -8.7 19 -13.2 24.5 -1.9 2.3 -7.8 7.1 -13.1 10.7 -11.7 8.1 -23.3 12.4 -41.6 15.7 -17.8 3.1 -30 3 -42.7 -0.4 -13.2 -3.6 -16.2 -5.3 -24.5 -14.1 -10.5 -11 -12.2 -15.1 -13.2 -31.4 l-0.6 -10.3 -9.2 8.6 c-15.2 14.2 -22 26.4 -28.3 51 -6.6 25.4 -7 36.8 -2.5 64.2 4.2 24.8 9.6 37.1 21.9 50 7.6 8.1 15.2 14.3 22.9 18.7 4.5 2.7 4.7 3 4.7 7.2 0 3.7 -0.5 4.8 -3.3 7.4 -1.8 1.6 -4.3 4.7 -5.4 6.8 l-2.2 3.8 6 4.7 c5.3 4.3 9.6 6.7 11.8 6.7 1.1 0 5.2 -10 6.6 -16.4 l1.2 -5.1 5.9 0.1 c3.2 0.1 7.6 0.8 9.7 1.7 3.5 1.5 3.7 1.9 3.7 5.9 0 2.4 -0.7 6.8 -1.5 9.8 -0.8 3 -1.5 6.7 -1.5 8.2 0 3 1.6 3.7 12.9 6 4.6 0.9 6.5 1.8 6.9 3 0.8 3.1 1.2 2 1.1 -2.9z m-62.3 -36.5 l2.9 -3.3 -3.2 2.9 c-3.1 2.8 -3.8 3.6 -3 3.6 0.2 0 1.6 -1.5 3.3 -3.2z m151.7 -0.1 c-1.5 -1.9 -3 -3.2 -3.2 -3 -0.5 0.3 4.9 6.3 5.7 6.3 0.2 0 -0.9 -1.5 -2.5 -3.3z m154.8 -8.2 c0.5 0.4 0.9 -0.1 0.9 -1 0 -0.9 -0.4 -1.4 -0.9 -1 -0.5 0.3 -1.2 -0.3 -1.4 -1.2 -0.3 -1 -0.5 0 -0.5 2.2 0 2.2 0.2 3.2 0.5 2.2 0.2 -0.9 0.9 -1.5 1.4 -1.2z m-325.1 -9.8 c0 -0.2 -1.5 -1.6 -3.2 -3.3 l-3.3 -2.9 2.9 3.3 c2.8 3 3.6 3.7 3.6 2.9z m-226.3 -18.4 c-0.3 -1 -0.5 -0.2 -0.5 1.7 0 1.9 0.2 2.7 0.5 1.8 0.2 -1 0.2 -2.6 0 -3.5z m465.8 -14.3 c0.9 -1.6 1.3 -3 1.1 -3 -0.3 0 -1.2 1.4 -2.1 3 -0.9 1.7 -1.3 3 -1.1 3 0.3 0 1.2 -1.3 2.1 -3z m71.5 -1.3 c0 -0.2 -1.5 -1.6 -3.2 -3.3 l-3.3 -2.9 2.9 3.3 c2.8 3 3.6 3.7 3.6 2.9z m-66.1 -10.2 c0 -0.5 -0.8 0.6 -1.9 2.5 -1.1 1.9 -1.9 4 -1.9 4.5 0 0.6 0.8 -0.6 1.9 -2.5 1.1 -1.9 1.9 -3.9 1.9 -4.5z m-275.6 -11.7 c-0.8 -4.6 -1.9 -8.8 -2.4 -9.4 -0.7 -0.9 -0.5 -1.4 0.8 -1.7 1 -0.3 -0.4 -0.5 -3.2 -0.5 -3.5 0 -4.4 0.2 -3 0.8 1.9 0.7 1.9 0.8 0.2 1.5 -1 0.4 -3.8 0.5 -6.3 0.1 -4 -0.5 -4.4 -0.4 -3.5 1.2 1.6 2.9 16.8 16.2 18.5 16.2 0.2 0 -0.3 -3.7 -1.1 -8.2z m259.8 -0.7 c3.2 -2.9 6.4 -6.1 6.9 -7.1 1 -1.8 0.8 -1.9 -3.4 -1.4 -2.5 0.4 -5.3 0.3 -6.3 -0.1 -1.7 -0.7 -1.7 -0.8 0.2 -1.5 1.4 -0.6 0.5 -0.8 -3 -0.8 -2.7 0 -4.2 0.2 -3.2 0.5 1.4 0.4 1.5 0.8 0.7 1.8 -0.6 0.7 -1.7 4.9 -2.4 9.4 l-1.3 8.1 3 -1.9 c1.6 -1 5.5 -4.2 8.8 -7z m9.9 -3.8 c0 -0.8 -0.9 0 -5 4.5 l-4.5 4.7 4.8 -4.5 c2.6 -2.4 4.7 -4.5 4.7 -4.7z m174.7 -6 c-0.3 -1 -0.5 -0.2 -0.5 1.7 0 1.9 0.2 2.7 0.5 1.8 0.2 -1 0.2 -2.6 0 -3.5z m-447.5 -18.2 c-1 -22.1 5.8 -55.3 15.3 -74.5 1.9 -3.8 3.3 -7.2 3 -7.4 -0.5 -0.6 -7.8 -0.7 -19.8 -0.4 l-9.8 0.2 4.5 5.8 c5.6 7.2 8.5 13.5 8.6 18.8 0 4.9 -1.4 6.4 -6 6.4 -4.4 0 -6 -1.5 -6 -5.6 0 -4.6 -11.7 -20.5 -16.1 -21.9 -1.4 -0.5 -1.9 -1.6 -1.9 -4.5 0 -3.2 -0.5 -4.1 -3.2 -5.8 -1.8 -1.2 -3.4 -2 -3.5 -1.8 -0.9 0.8 3.6 12.4 7.7 20.1 8.4 15.6 13 33.8 13 51.1 0 11.1 -0.2 11.4 -6.3 11.4 l-5 0 0.7 -6.9 c1.2 -13.7 -3.1 -30.6 -12.6 -49.1 l-5.9 -11.5 0.7 9.4 c0.4 6 0.3 9.6 -0.4 10 -0.6 0.4 -0.1 4 1.4 10.1 1.4 5.2 3.3 13.8 4.4 19 4.7 23.1 17.2 36.3 34.6 36.9 l3.1 0.1 -0.5 -9.9z m265.5 8.5 c13.9 -3.7 23.4 -15.8 26.9 -34.2 0.8 -4.4 2.4 -11.2 3.5 -15.2 1.5 -5.4 2.1 -11.2 2.3 -21.4 l0.3 -14 -2.1 4.9 c-1.2 2.6 -3.8 8 -5.8 11.9 -7.1 13.7 -11.3 32 -10.2 44.2 l0.6 7.2 -5 0 c-6.1 0 -6.2 -0.2 -6.2 -12 0 -16.7 4.9 -35.9 13 -50.6 3.6 -6.5 8.5 -19.2 7.8 -20 -0.2 -0.1 -1.8 0.6 -3.6 1.8 -2.7 1.7 -3.2 2.6 -3.2 5.8 0 3 -0.5 4 -2 4.5 -4.4 1.4 -16 17.3 -16 21.9 0 4.1 -1.6 5.6 -6 5.6 -4.7 0 -6 -1.5 -6 -6.7 0 -5.1 3.1 -11.7 8.9 -19.1 l4.1 -5.2 -9.7 -0.2 c-12.3 -0.3 -19.3 -0.2 -19.9 0.5 -0.3 0.2 1.1 3.5 2.9 7.3 9.7 19.4 16.7 53.6 15.4 75.2 l-0.5 9.2 2.6 0 c1.5 0 5.1 -0.6 7.9 -1.4z m-132.2 -63.5 c10.8 -2.1 19.5 -4.9 15.8 -5 -4.4 -0.2 -5.3 -1.1 -5.3 -5.7 l0 -4.4 4.6 0 c5.8 0 9.9 -2.4 14.1 -8.2 6.8 -9.5 7.1 -18.3 1.3 -38.6 -1.7 -5.9 -3.8 -15.2 -4.6 -20.7 -0.8 -5.5 -2.5 -14.5 -3.7 -20 -1.2 -5.5 -2.3 -14.6 -2.5 -20.2 -0.4 -11.5 -0.6 -11.7 -7.4 -8.9 -9.7 4.1 -36.6 27.7 -43.8 38.5 -1.6 2.4 -5.5 12.2 -8.7 22 l-5.8 17.6 0.1 13.5 c0 10.4 0.4 14.5 1.7 18 2.3 5.8 7.2 10.8 11.9 12.1 3.7 0.9 3.8 1.1 3.8 5.4 l0 4.5 -4.2 0.1 -4.3 0.1 4.5 1.2 c6.2 1.6 20.6 1.1 32.5 -1.3z m-178.8 -2.8 c-0.3 -1 -0.5 -0.2 -0.5 1.7 0 1.9 0.2 2.7 0.5 1.8 0.2 -1 0.2 -2.6 0 -3.5z m124.3 -0.6 c0 -0.2 -1.9 -2.1 -4.2 -4.2 l-4.3 -4 4 4.3 c3.6 3.9 4.5 4.7 4.5 3.9z m4.6 -4.2 c-5.4 -7 -6.9 -15.8 -6.4 -36.3 l0.5 -16.7 5.2 -16 c2.8 -8.8 6.3 -18.2 7.6 -21 5.4 -11.3 33.3 -36.9 47 -43.1 9.1 -4.2 18.5 -4.5 18.5 -0.6 0 1.4 0.8 1.6 5 1.4 4.1 -0.3 5 -0.1 5 1.2 0 1.2 1 1.6 4.5 1.6 4.1 0 4.5 0.2 4.5 2.5 0 1.9 0.5 2.5 2.3 2.5 1.2 0 3.6 0.9 5.4 2 3.2 1.9 3.2 1.9 -1.8 -6 -5.5 -8.7 -9 -12.1 -15.6 -15.3 -4.1 -2 -4.4 -2 -12.2 -0.3 -10.8 2.3 -23.1 7.5 -30.6 12.8 -7.6 5.5 -21.6 19.1 -27.3 26.5 -15.4 20 -19.1 26.8 -26.3 47.7 -4.4 12.6 -4.9 15 -4.9 22.6 0 8.1 1.5 15.2 4.1 20.2 2.9 5.5 16 18.8 18.5 18.8 0.2 0 -1.2 -2 -3 -4.5z m104.9 -29.9 c4.5 -8.8 4.9 -10.2 4.9 -16.5 -0.1 -4.3 -0.7 -7.8 -1.7 -9.7 -0.9 -1.6 -4.4 -9.3 -7.7 -17.2 -3.2 -7.9 -7.5 -16.9 -9.4 -20 -5.7 -9.6 -9.6 -19.6 -9.6 -24.9 -0.1 -3.9 -0.3 -4.4 -1.1 -3 -1.3 2.2 -0.8 6.8 1.8 19.7 1.1 5.2 2.5 13.4 3.2 18.1 0.6 4.7 2.7 14.1 4.6 21 5.9 21.1 6.8 37.7 2.4 47.9 l-1.9 4.5 4.8 -5.1 c2.8 -2.9 6.9 -9.3 9.7 -14.8z m87.1 14.2 l2.9 -3.3 -3.2 2.9 c-3.1 2.8 -3.8 3.6 -3 3.6 0.2 0 1.6 -1.5 3.3 -3.2z m-317.6 -17.3 c0 -0.2 -0.9 -0.9 -2 -1.5 -1.6 -0.9 -2 -0.8 -2 0.5 0 0.8 0.9 1.5 2 1.5 1.1 0 2 -0.2 2 -0.5z m344 -1 c0 -0.9 -0.6 -1.2 -1.5 -0.9 -0.8 0.4 -1.5 1 -1.5 1.5 0 0.5 0.7 0.9 1.5 0.9 0.8 0 1.5 -0.7 1.5 -1.5z m-442.8 -48.5 c2.8 -4.1 7.3 -10.3 10 -13.7 l4.8 -6.3 -2.8 0 c-2.6 0 -3.3 0.8 -6.7 7.3 -3.7 7.1 -4.4 8.1 -9.7 14.9 -1.5 1.9 -3.4 5.2 -4.3 7.4 l-1.6 3.9 2.6 -3 c1.4 -1.6 4.9 -6.4 7.7 -10.5z m335.5 -7 c-0.3 -5.5 -1.2 -11.1 -2 -12.5 -1.1 -2.3 -1.3 -1.4 -0.9 7.2 0.3 8.8 1.6 15.3 3 15.3 0.3 0 0.2 -4.5 -0.1 -10z m-10.7 -12.3 c-1.3 -6.2 -4.9 -13.7 -7.1 -15 -0.9 -0.6 -2.4 -0.7 -3.2 -0.4 -1.4 0.5 -1.3 1.5 1.4 7.4 1.7 3.7 4.5 9.3 6.2 12.3 2.7 4.6 3.3 5.1 3.5 3.2 0.2 -1.2 -0.2 -4.6 -0.8 -7.5z m167.1 -22.6 c-0.8 -0.5 -2 -0.7 -2.8 -0.4 -2.1 0.8 -1.5 1.3 1.5 1.3 2 0 2.3 -0.3 1.3 -0.9z m-13.6 -1.9 c0.6 -0.4 1.1 -4.5 1.2 -9.1 0.1 -7.2 0.6 -9.2 3.4 -14.9 5 -10.2 19.5 -23 32.3 -28.7 7.6 -3.3 22.5 -6.5 30.7 -6.5 5.9 0 7.2 0.4 10 2.7 l3.2 2.7 -0.5 13.4 -0.6 13.4 6.5 -6.4 c10.6 -10.4 21.3 -28 21.3 -35.1 0 -1.3 -1.5 -3.8 -3.6 -5.8 -3.4 -3.3 -3.7 -3.4 -10.8 -3.2 -5.1 0.1 -10.2 1.1 -16.6 3.2 -5.1 1.7 -9.9 3.1 -10.6 3.1 -2.8 0 -22.4 10.9 -34 18.9 -12.8 8.8 -29.2 23.3 -39 34.7 -9.8 11.2 -11.3 15.7 -5.5 17 1.4 0.3 3.1 0.7 3.6 0.9 1.9 0.6 8 0.5 9 -0.3z m33.5 -6.1 c3.5 -0.7 3.5 -0.7 3.8 -6.6 0.3 -7.5 1.1 -9.8 2.2 -7 0.6 1.4 0.8 0.1 0.8 -4 0 -3.3 -0.2 -5.2 -0.5 -4.2 -0.7 2.7 -2.3 0.9 -2.3 -2.7 0 -2.4 1 -4.1 4.3 -7.3 2.3 -2.2 6 -5 8.2 -6.2 5.1 -2.8 0.9 -1.8 -6.4 1.5 -11.9 5.3 -25.4 17.5 -29.7 26.7 -2.8 6.1 -2.9 7 -0.8 8.7 3.2 2.7 10.6 3.1 20.4 1.1z m23 -7.3 c7.3 -3.2 7.4 -3.3 11 -12.5 l0.9 -2.2 -4.6 2.5 c-3.4 1.7 -6.2 2.4 -10.4 2.4 -5.8 0 -5.9 0.1 -5.9 2.8 0 3.3 1.1 10.2 1.6 10.2 0.2 0 3.6 -1.4 7.4 -3.2z m40.3 -17.4 c-0.1 -0.5 0.3 -1.5 0.9 -2.1 1.9 -2.3 0.2 -1.4 -2.1 1.1 -2.1 2.2 -2.1 2.4 -0.5 2.2 1.1 -0.2 1.8 -0.7 1.7 -1.2z m-461.5 -0.1 c-1 -0.2 -2.6 -0.2 -3.5 0 -1 0.3 -0.2 0.5 1.7 0.5 1.9 0 2.7 -0.2 1.8 -0.5z m372.7 -7.3 c2.1 -2.2 3.7 -4 3.4 -4 -0.3 0 -2.3 1.8 -4.4 4 -2.1 2.2 -3.7 4 -3.4 4 0.3 0 2.3 -1.8 4.4 -4z m-4.5 -1.5 c1.9 -1.9 3.2 -3.5 2.9 -3.5 -0.3 0 -2 1.6 -3.9 3.5 -1.9 1.9 -3.2 3.5 -2.9 3.5 0.3 0 2 -1.6 3.9 -3.5z m66 -7.1 c0 -1.7 -2.5 -2.4 -6 -1.7 -3 0.5 -3 0.6 -1 2 1.1 0.8 2 2.4 2 3.5 0 2.1 0 2.1 2.5 -0.2 1.4 -1.3 2.5 -2.9 2.5 -3.6z"/>
  <path d="M41.7 631.3 c-1.3 -1.2 -0.7 -8.5 1.3 -16.2 2.2 -8.6 2.2 -9.5 1.4 -23.8 -0.9 -14.1 -0.5 -15.3 5 -15.3 4.2 0 4.6 -0.3 9.9 -6.8 6.3 -7.8 15.4 -21.4 21.4 -31.7 13.9 -24.1 34.8 -79.2 37.8 -99.5 1.8 -12.5 4.4 -24.8 5.7 -27.3 0.7 -1.4 1.9 -1.7 5.6 -1.5 l4.7 0.3 -0.1 7.5 c-0.2 12.5 -2.3 61.3 -3.5 81.5 -0.7 10.5 -1.1 28.6 -0.9 40.3 0.2 22.2 -0.1 24.2 -4.1 24.2 -1 0 -4.6 1.6 -8.1 3.7 -6 3.5 -16.6 13.7 -56.2 54.6 -10.2 10.4 -10.6 10.7 -14.9 10.7 -2.4 0 -4.7 -0.3 -5 -0.7z"/>
  <path d="M56.7 515.3 c-1.1 -1 -0.8 -10.1 0.3 -10.5 0.5 -0.1 2.2 -4.8 3.7 -10.3 2.4 -9 2.7 -11.6 2.6 -26.8 l0 -16.7 3.1 -3.3 c3.3 -3.6 18.6 -24.4 23 -31.5 2.6 -4.2 2.8 -4.3 7.4 -4 4.5 0.3 4.7 0.4 5 3.7 0.2 1.9 -0.4 7.4 -1.3 12.3 -1.1 5.9 -1.6 14.1 -1.6 24.3 0.1 14.5 0 15.5 -2 16.8 -4 2.8 -14.1 17.2 -19.5 27.8 -3 5.9 -6.8 12.5 -8.4 14.8 -2.7 3.7 -3.4 4.1 -7.3 4.1 -2.4 0 -4.7 -0.3 -5 -0.7z"/>
  <path d="M370.6 449.9 c-2.3 -1.8 -2.6 -2.7 -2.6 -8.8 0 -6 0.3 -7 2.6 -9.2 2.2 -2.1 3.5 -2.4 9.4 -2.4 5.9 0 7.2 0.3 9.4 2.4 2.3 2.1 2.6 3.3 2.6 8.8 0 5.5 -0.4 6.8 -2.5 8.8 -2.1 2.2 -3.3 2.5 -9.3 2.5 -5.5 0 -7.5 -0.4 -9.6 -2.1z"/>
  <path d="M323.1 435 c-9.5 -2 -22.2 -11.3 -30.1 -22 -5.8 -7.9 -6.2 -8.8 -8.9 -17 -8 -24.3 0.5 -50.8 19.3 -60 5.3 -2.7 7.7 -3.2 16.9 -3.7 10.2 -0.6 10.8 -0.5 16.4 2.2 3.8 1.9 8.7 5.8 14.4 11.4 7.3 7.4 9 9.7 11.8 16.4 5.4 13.3 6.5 18.8 6.5 34.7 0.1 13.9 0 14.7 -2.7 20.2 -3.2 6.4 -7.2 10.2 -16 14.9 -5.1 2.7 -7.2 3.2 -14.6 3.5 -4.7 0.2 -10.6 -0.1 -13 -0.6z"/>
  <path d="M416.3 435 c-9.2 -2.2 -19.1 -9.8 -23 -17.8 -2.7 -5.5 -2.8 -6.2 -2.8 -20.7 0 -12.8 0.4 -16.1 2.4 -22.5 4.3 -14.3 8.3 -21 17.1 -29.3 4.4 -4.2 10.5 -8.8 13.6 -10.3 5.3 -2.6 6 -2.7 16.2 -2.1 9.3 0.5 11.4 1 16.9 3.8 12 6.1 19.4 17.5 21.4 33 2 16.1 -1.8 31.3 -11 43.7 -5.2 7 -14.8 15.5 -21.6 19.1 -7.1 3.6 -20.8 5.1 -29.2 3.1z"/>
  <path d="M364.7 289.3 c-2 -4.4 -2.2 -6.2 -2.1 -23.3 0.1 -16.5 0.4 -19.6 2.7 -28.1 1.4 -5.3 5.2 -15.5 8.4 -22.5 l5.8 -12.9 4.5 0 4.5 0 0.3 4.2 c0.2 3 -0.5 5.7 -2.4 9.5 -1.5 2.9 -4.2 8.9 -6.1 13.3 -8.8 20.4 -10.8 46.6 -4.2 54.9 1.3 1.7 1.9 3.7 1.7 5.8 -0.3 3.2 -0.4 3.3 -5.6 3.6 l-5.3 0.3 -2.2 -4.8z"/>
 </g>
 <g fill="#7d85d3">
  <path d="M173.1 631 c13 -13 16.6 -17.2 19 -22.3 3 -6.4 3.7 -11.4 1.9 -14.7 -0.9 -1.7 -0.4 -1.9 5.5 -2.5 3.5 -0.4 6.9 -1.3 7.5 -2 1.8 -2.2 3.1 -12.5 3 -24 -0.1 -6 -0.3 -31.8 -0.3 -57.3 -0.2 -37.6 -0.5 -46.4 -1.5 -47.1 -1.7 -1 -20 6 -30.8 11.8 -4.2 2.3 -7.8 4 -7.9 3.9 -0.3 -0.3 -2.1 -21.8 -2.9 -35.4 l-0.5 -8.1 7.7 -5.3 c31.8 -21.9 32.8 -22.5 43.2 -23.5 4.1 -0.3 8.7 -0.8 10.1 -1.1 2.5 -0.4 3.1 0.7 13.9 21.9 13.5 26.6 13 22.3 7 56.7 -1.6 8.9 -3 32.6 -4 67.2 -0.5 17.8 -1.2 33.5 -1.6 34.9 -0.3 1.5 -0.1 3.6 0.5 4.7 0.9 1.8 2.5 2.1 13.4 2.7 7 0.4 15.5 0.3 19.8 -0.3 4.1 -0.5 7.5 -0.9 7.6 -0.8 0.7 0.6 4.3 34.3 4.3 40.9 l0 8.4 -10.7 0.7 c-6 0.4 -16.6 0.6 -23.8 0.5 -7.1 -0.1 -17.5 0.3 -23 0.9 -5.5 0.7 -21 1.6 -34.5 2.2 -13.5 0.6 -26.3 1.5 -28.5 2 -2.2 0.5 -5.4 1 -7.2 1 -3.1 0 -2.6 -0.7 12.8 -16z"/>
  <path d="M479.6 592.4 c0.3 -3.2 1.4 -11.1 2.4 -17.4 1.1 -6.3 2.2 -14.9 2.5 -19 1.5 -19.7 0.4 -17.1 12.7 -29.4 6.1 -6.1 14.8 -15.5 19.5 -20.8 4.6 -5.3 14.1 -14.9 21.1 -21.4 7 -6.4 13.3 -12.8 14 -14.1 1.3 -2.3 2.3 -8.8 3.9 -25.2 0.4 -4.8 0.3 -6.5 -0.8 -7.2 -2.2 -1.4 -27.2 -1.1 -29.2 0.4 -1 0.7 -2.3 4.3 -3.3 8.7 -0.8 4.1 -1.6 7.5 -1.7 7.6 -0.1 0 -4 1 -8.7 2.1 -4.7 1.2 -9.3 2.4 -10.3 2.8 -1.4 0.6 -1 -0.5 1.6 -4.6 1.8 -3 10.5 -19.3 19.1 -36.4 8.7 -17.1 16.3 -31.6 16.9 -32.4 0.9 -1 3.7 -1.2 12.7 -0.9 11.2 0.4 11.7 0.6 19.8 4.7 22.6 11.4 31.8 25.6 32.9 50.7 0.9 18.2 -3.7 35 -15 54.8 -4.8 8.5 -16.4 24.4 -23.1 31.5 -3.9 4.2 -14.8 12.9 -23.8 19.1 -9.6 6.7 -23.1 19.7 -22.4 21.7 0.4 1 1.3 1.3 2.9 0.9 6.7 -1.9 60.5 -4.9 69.5 -3.9 3.9 0.5 4.3 0.8 3.8 2.7 -0.3 1.1 -1.5 7.2 -2.7 13.4 l-2.1 11.2 -7.2 0.2 c-3.9 0.2 -10.6 0.1 -14.8 -0.1 -4.2 -0.1 -11 0.2 -15 0.8 -4 0.6 -15.2 1.3 -24.8 1.6 -9.6 0.3 -20.2 0.9 -23.5 1.5 -3.3 0.5 -10.8 1.3 -16.8 1.6 l-10.8 0.7 0.7 -5.9z"/>
  <path d="M265.5 547.5 l0 -23 16.8 0 c15.9 0.1 16.8 0.2 18.2 2.2 2 2.9 22.6 42.6 22.2 42.9 -0.1 0.2 -13.1 0.4 -28.7 0.6 l-28.5 0.3 0 -23z"/>
  <path d="M437 570.2 c0 -1.5 19.2 -38.1 24.4 -46.5 2.6 -4.2 5.3 -7.7 6 -7.7 0.8 0 1.1 7.3 1.2 26.4 l0.1 26.3 -13.6 0.7 c-7.5 0.4 -14.6 1 -15.8 1.3 -1.3 0.3 -2.3 0.1 -2.3 -0.5z"/>
 </g>
 <g fill="#d3bf7d">
  <path d="M96.7 708.4 c-0.4 -0.4 -6.9 -1.3 -14.4 -2 -23.8 -2.3 -36.3 -4.9 -42.5 -8.9 -2.9 -2 -3.8 -3.3 -4.7 -7.3 -1.2 -5.8 -0.7 -9.9 2.5 -20.7 2.7 -9 12.8 -26.5 15.4 -26.5 0.4 0 0.8 3.4 0.9 7.6 0.1 4.2 0.6 11.1 1.1 15.3 0.9 7 1.3 7.8 4.8 10.8 5.5 4.8 9.1 5.7 19.8 4.9 6.8 -0.5 13 -1.8 23.1 -4.9 14.5 -4.6 24.6 -9.6 38.5 -19.3 6 -4.2 8.6 -5.4 11.5 -5.4 2.1 0 8.1 -0.7 13.4 -1.5 10.2 -1.5 24.4 -2.4 40.6 -2.6 5.4 0 15.7 -0.7 22.8 -1.4 7.2 -0.8 22.7 -1.5 34.5 -1.6 11.8 0 23.1 -0.2 25 -0.2 l3.5 -0.2 -0.3 -11.5 c-0.2 -11.4 -1.3 -22.6 -3.6 -39 -1.2 -8.1 -1.3 -8.5 -3.7 -8.3 -1.3 0.2 -5.8 0.6 -9.9 1 -4.1 0.5 -12.2 0.7 -17.9 0.5 l-10.3 -0.3 0.6 -9.7 c0.3 -5.3 0.8 -18.9 1.1 -30.2 0.9 -32.6 2.4 -54.5 4.6 -68.5 1.1 -7.1 2.4 -15.4 2.7 -18.4 l0.7 -5.4 10.2 15.4 c5.6 8.5 13.5 21.5 17.6 28.9 4.1 7.4 8.3 14.9 9.3 16.7 1 1.7 1.5 3.5 1 4 -0.4 0.4 -8.3 0.8 -17.4 0.8 l-16.7 0 0.5 6.5 c0.3 3.6 0.5 13.7 0.5 22.5 0 8.8 -0.2 18 -0.5 20.5 l-0.5 4.5 25.5 -0.4 c14 -0.2 28.5 0 32.2 0.4 l6.8 0.7 2.7 4.8 c8.1 14.1 18.7 28 29 38.1 17.1 16.7 18.7 17.9 23.2 17.9 3.4 0 4.9 -0.8 10.8 -6 12 -10.5 25.9 -25.3 29.5 -31.5 1.9 -3.4 5.2 -8.3 7.2 -10.9 2 -2.7 4.6 -6.6 5.6 -8.6 l1.9 -3.7 8.3 -0.7 c4.6 -0.3 12.6 -0.9 17.8 -1.2 5.2 -0.3 10 -1 10.7 -1.5 0.8 -0.7 1.2 -8.3 1.2 -26.7 0.1 -14.1 0.2 -27.3 0.4 -29.2 0.1 -2.6 -0.3 -3.7 -1.9 -4.5 -2 -1 -1.8 -1.5 5.5 -14.6 9.9 -17.8 19.2 -31.9 21.1 -31.9 0.8 0 3.5 -0.7 6 -1.6 2.5 -0.9 8.1 -2.4 12.5 -3.3 8.8 -1.9 8.9 -2 10 -11.1 0.3 -2.5 0.9 -5.1 1.4 -5.8 0.5 -0.8 4.7 -1.5 12.6 -1.9 l11.8 -0.6 -0.7 4.4 c-0.4 2.4 -1.3 8.7 -2 14 l-1.3 9.6 -7.4 6.9 c-9.2 8.5 -20.8 20.3 -41.5 42 -10.9 11.4 -16.4 18 -17.2 20.4 -0.5 1.9 -1.3 7.8 -1.6 13 -0.4 5.2 -1.3 13.7 -2.2 18.9 -1.4 9.2 -4.4 30.8 -4.4 32.4 0 1 15.4 0.1 31 -1.9 6.3 -0.8 17.5 -1.4 25 -1.4 7.4 0 16.4 -0.5 20 -1.1 3.6 -0.7 14 -1.2 23.2 -1.3 14.3 -0.1 16.8 0.1 16.8 1.4 0 1.7 -6.7 27 -7.2 27.6 -0.3 0.2 -14.1 0.8 -30.9 1.4 -16.7 0.5 -34 1.2 -38.4 1.5 -16.6 1.2 -39.2 3.7 -45.5 5 -13 2.8 -93.4 23 -94.8 23.9 -3.6 2.2 -28 7.9 -41 9.6 -8.6 1.1 -22.9 3.8 -31.7 6 -8.8 2.2 -20.8 4.6 -26.8 5.5 -12.5 1.7 -18.6 3.2 -35.4 8.5 -7.5 2.4 -16.8 4.5 -24.2 5.4 -6.6 0.9 -17.8 2.9 -24.9 4.6 -7.1 1.6 -17.3 3.5 -22.8 4.1 -5.4 0.6 -18 2.3 -27.9 3.9 -17.5 2.8 -40.5 4.6 -41.8 3.4z"/>
  <path d="M28.4 673 c-1.2 -4.1 -1.8 -10 -2.2 -22.8 -0.4 -18.9 0.6 -31.5 3.8 -43.2 6.2 -23.4 8.2 -32.1 10.5 -47 1.5 -9.1 4.4 -23.2 6.5 -31.5 2.1 -8.2 4.1 -17.5 4.5 -20.5 0.3 -3 1.5 -10.9 2.5 -17.5 3.7 -22.8 7.1 -91.5 5.8 -114.5 -0.9 -15.6 -1.3 -20.6 -4.8 -51.5 -2.3 -21.1 -8.8 -52.1 -13.3 -64 -1.9 -4.9 -3.8 -10.6 -4.2 -12.5 -0.3 -1.9 -1.8 -8.2 -3.2 -14 -2.6 -10.5 -2.6 -10.5 -1.4 -31 1.3 -22.8 2.9 -32.6 6.5 -40.5 4.4 -9.6 25.2 -39.1 31.7 -44.7 8.7 -7.7 26.1 -18.3 35.9 -21.9 10.4 -3.8 30.3 -7.9 38 -7.9 15.9 0 24.1 8.3 27.5 27.7 1.8 10.3 1.7 11.1 -4.5 35.8 -2.6 10.5 -5.5 23.1 -6.4 28 -0.9 5 -3.4 15.5 -5.6 23.5 -4.2 15.3 -6.4 28 -7.5 42 -0.6 7.5 -2.3 21.2 -6.7 53 -1.6 11.4 -1.5 68.2 0.2 96.1 1.3 22.2 4.6 58.5 6 65.8 0.5 2.9 1.7 13.9 2.6 24.4 0.8 10.6 2.4 23.5 3.4 28.7 9.6 48.5 13.7 60.7 24.1 70.9 l5.2 5.1 -5.9 0 c-8.8 0 -27.9 1.8 -37 3.5 -10.2 1.9 -26.6 8 -41.9 15.8 -18.8 9.4 -21.7 11.3 -41.5 26.4 -3 2.4 -6.6 5.1 -8 6.2 -4.3 3.2 -12.5 17.9 -15.8 28.1 l-3 9.4 -1.8 -5.4z m30.2 -54.7 c39.6 -40.9 50.2 -51.1 56.2 -54.6 3.5 -2.1 7.1 -3.7 8.1 -3.7 4 0 4.3 -2 4 -23.7 -0.2 -11.4 0.2 -29.8 0.9 -40.8 0.7 -11 1.7 -31.2 2.2 -45 0.4 -13.7 1.2 -27.8 1.6 -31.2 0.6 -5.4 0.4 -6.3 -1 -6.9 -1 -0.4 -2.2 -0.2 -2.8 0.4 -1.4 1.4 -3.5 10.4 -5.8 25.7 -1.5 9.3 -3.6 17.7 -7.7 29.5 -16.6 48.8 -32.2 79.9 -52.5 104.8 -5.8 7.1 -6 7.2 -9.7 6.6 -4.8 -0.8 -5 -0.2 -4.4 10.6 0.8 15.1 0.5 19.4 -1.7 27.9 -3.7 14.7 -1.4 14.7 12.6 0.4z m7.4 -109.4 c1.6 -2.3 5.4 -8.9 8.4 -14.8 5.4 -10.5 15.5 -25 19.5 -27.7 1.9 -1.3 2 -2.5 1.9 -16.7 -0.1 -10.4 0.4 -18 1.6 -24 0.9 -4.8 1.4 -9.2 1.1 -9.7 -1.3 -2.1 -3.6 -0.8 -6.1 3.3 -4.4 6.9 -19.6 27.8 -22.9 31.3 l-3 3.2 -0.1 16.8 c-0.1 15 -0.4 18 -2.7 26.9 -1.5 5.5 -3.2 10.2 -3.7 10.3 -1.1 0.4 -1.4 3.5 -0.3 4.5 1.5 1.5 3.5 0.5 6.3 -3.4z m6.6 -92.3 c2 -5.6 15 -26.6 22.2 -35.7 5.8 -7.4 7.5 -10.9 5.2 -10.9 -2.7 0 -3.8 -5.4 -6.6 -32.9 -1.4 -13.8 -1.4 -18.3 -0.4 -29 1.6 -17.3 2 -19 8 -28.1 5.2 -7.9 5.3 -8 9.4 -8 2.9 0 5.3 0.8 7.5 2.4 3.5 2.6 5.7 2.5 6.5 -0.2 1.8 -5.9 7.9 -35.2 10.1 -48.2 3 -17.6 3.9 -38 1.7 -40.2 -0.9 -0.9 -1.7 -1 -3 -0.2 -1.8 1.1 -12 14.4 -23.7 30.9 -12 16.9 -24.8 29.1 -32.6 31 -2.6 0.6 -2.7 0.5 -3.5 -4.7 -1.9 -13.8 0 -30.7 5.6 -49.7 1.7 -5.5 3 -10.7 3 -11.6 0 -3.3 -3.7 -1.1 -14.6 8.6 -12.3 10.9 -17.1 16.2 -22.9 25.3 -3.3 5.2 -3.7 6.3 -2.7 8.5 0.5 1.4 3.1 7.5 5.6 13.4 13.7 32.5 20.7 68.9 20.9 108.7 0.1 21.7 -1.1 65.4 -1.9 69.7 -0.7 3.9 0.2 5.5 2.8 5.1 1.4 -0.2 2.6 -1.6 3.4 -4.2z m25.8 -200.8 c1.8 -4 5.1 -9.4 7.2 -12 2.2 -2.6 5.6 -8 7.6 -12 3.6 -7.1 3.7 -7.6 3.7 -17.8 0 -12.6 2.7 -29.1 7.5 -45 1.9 -6.3 3.2 -11.8 3 -12.2 -1.5 -2.4 -4.4 -0.4 -7.5 5 -1.7 3.1 -9 14.5 -16 25.3 l-12.8 19.5 0.9 12.5 c1.3 17.1 1.2 34 -0.1 37.8 -1.3 3.6 -0.6 6.1 1.6 6.1 1 0 2.8 -2.7 4.9 -7.2z m33.8 -40.8 c8.8 -9.6 8.9 -9.8 11.4 -23 3.5 -18.2 2.1 -19 -9.7 -5.4 -16.5 19 -14.9 16.6 -13.8 20.9 0.6 2 0.8 5.9 0.4 8.6 -0.7 4.7 0.4 7.9 2.6 7.9 0.4 0 4.5 -4.1 9.1 -9z"/>
  <path d="M68.8 677.3 c-1.5 -0.2 -4.1 -2 -5.9 -4 -3 -3.4 -3.1 -4 -2.7 -9.7 1.1 -13.1 15 -33.1 32.1 -46 2.1 -1.6 4 -2.7 4.2 -2.4 0.2 0.2 -0.2 2.5 -1 5.1 -0.8 2.6 -1.8 9.3 -2.3 15 -1.1 12 -0.2 15 5.6 17.4 3.3 1.4 4.4 1.3 14.2 -0.7 13.7 -3 26.1 -8.9 36 -17.2 9.5 -8.1 14.5 -15.3 16.6 -24.1 2 -7.9 1.2 -10.6 -3.7 -13.6 l-3.2 -2 3.9 -0.7 c4.6 -1 19 -1 22.8 0 1.4 0.3 3.2 1.9 4.1 3.6 1.4 2.7 1.3 3.3 -1.2 8.6 -5.2 11 -34.2 37.7 -55.8 51.4 -20.2 12.9 -49.5 21.8 -63.7 19.3z"/>
  <path d="M604.9 670.6 c-8.6 -3.1 -13.4 -9.1 -16.5 -20.6 -2.9 -11.2 -2.3 -19.3 2.9 -39 2.5 -9.6 5.5 -22.4 6.6 -28.5 1.2 -6 3.6 -16.6 5.5 -23.5 4.9 -18 6.4 -25.7 8 -43.6 0.9 -8.7 2.7 -24 4.1 -33.9 4 -29.4 4.7 -45 3.5 -85 -0.6 -19.7 -1.3 -38.1 -1.5 -40.9 -0.3 -2.8 -1.5 -15.4 -2.6 -28.1 -1.1 -12.6 -2.5 -25.2 -3 -28 -0.5 -2.7 -1.7 -13.5 -2.5 -24 -2.2 -26.8 -10.5 -67.2 -17 -82.5 -3.7 -8.8 -5.5 -11.7 -10.1 -16.4 l-5.6 -5.6 5.9 0 c8.8 0 27.9 -1.8 37 -3.5 20 -3.7 54 -19.8 73.7 -35 4.3 -3.3 10.3 -7.7 13.3 -9.9 3 -2.1 6.2 -4.8 7 -6 6.2 -8.9 10.2 -16.5 13 -25 l3.2 -10 1.7 5.5 c1.3 3.8 1.9 10.2 2.2 22.1 0.6 18.2 -0.7 32.7 -3.8 44.1 -5.8 21.3 -8.1 31.6 -10.4 46.6 -1.5 9.1 -4.4 23.4 -6.5 31.6 -2.2 8.3 -4.2 17.5 -4.6 20.5 -0.3 3 -1.5 11.1 -2.5 18 -1.9 11.7 -4 40.6 -5.9 81 -2 42.4 7.6 121.3 18 147.7 2.7 6.8 5.4 16.8 9.2 34.3 1 4.8 -0.4 36.7 -2.2 49.2 -1.6 10.7 -4.6 17.1 -16.7 35.2 -13.4 19.9 -20.2 27 -35.5 36.6 -12.5 7.8 -24.5 12.5 -39.8 15.6 -12.8 2.6 -22.7 3 -28.1 1z m31.3 -26.8 c16.8 -16.7 30.4 -36.1 51 -72.8 4.2 -7.4 8.5 -15.7 9.6 -18.5 3.2 -8.1 5.4 -19.5 5 -26.1 -0.3 -5.9 -0.1 -6.2 3.1 -9 6.8 -5.7 9.5 -18.7 5.8 -27.5 -1.8 -4.5 -8 -11.5 -11.8 -13.5 -3.6 -1.8 -10.4 -1.8 -16 0.1 -6.7 2.3 -17.9 11.2 -20.6 16.4 -3.9 7.5 -2.6 17.9 3.2 25.5 l2.5 3.3 -7.2 4.9 c-10.2 6.8 -25.3 12.6 -29.1 11.1 -2.3 -0.9 -2.1 -6.1 0.4 -11.6 2.1 -4.7 1.9 -7.1 -0.4 -7.1 -2.1 0 -11.2 12.2 -14.7 19.5 -6.7 14.1 -8 32.1 -2.6 35.7 4.7 3.1 26 -3.8 39.2 -12.7 4.5 -3 8.4 -5.5 8.8 -5.5 1.9 0 -0.8 8.5 -12.6 38.5 -10.6 27 -9.7 25.2 -20.5 42.6 -8.3 13.5 -9.4 16.9 -5.3 16.9 1 0 6.5 -4.6 12.2 -10.2z m4.4 -157.8 c3.2 -3.8 7.5 -8.1 9.6 -9.5 2.2 -1.4 4.3 -3.6 4.8 -4.8 0.9 -2.3 3.5 -13.6 4.4 -19.7 0.8 -4.9 4 -9.8 6.8 -10.2 2 -0.3 2.4 -1 3 -6.6 0.8 -7.7 4.2 -21.3 6.3 -25.5 3.1 -6.2 1.3 -7.4 -6.2 -4.1 -10.8 4.7 -25.3 16 -25.3 19.7 0 1 0.7 2.6 1.6 3.5 3.2 3.2 -0.2 15.4 -4.3 15.7 -1.3 0.1 -2.5 0.4 -2.7 0.6 -0.2 0.2 -0.9 6.7 -1.5 14.4 -0.7 7.7 -2.1 17.9 -3.2 22.7 -3.1 13.2 -1.8 13.9 6.7 3.8z m2.8 -74.9 c17.5 -13.4 30.4 -31.6 37.5 -52.7 3.6 -10.6 7.4 -27.2 6.6 -28.5 -0.4 -0.5 -1.5 -0.9 -2.5 -0.9 -1.5 0 -3 2.1 -5.9 7.8 -5 9.8 -13.1 21.4 -17 24.1 l-3 2.1 -4.3 -8.2 c-2.3 -4.6 -4.2 -9 -4 -9.8 0.1 -0.8 2.3 -5.7 4.8 -10.8 4.3 -8.7 4.9 -12.2 2.4 -12.2 -3.2 0 -24.4 13.5 -29 18.4 -2.1 2.3 -2.2 3 -1.2 4.7 1.3 2 4.3 18.8 6.2 34.4 0.6 5 1 14.4 0.8 21 -0.4 16.3 0.2 17 8.6 10.6z m8.7 -95 c3 -1.1 7.8 -2.3 10.6 -2.7 2.8 -0.3 5.6 -1 6.2 -1.4 2.6 -1.5 17.2 -45 22.1 -65.7 1.6 -6.7 4.1 -18.6 5.5 -26.5 1.4 -7.9 3.3 -16.6 4.1 -19.4 1.5 -4.9 1.5 -5.4 -0.9 -13.5 -1.4 -4.6 -3.1 -11.1 -3.7 -14.4 -2.8 -14.9 -4.3 -16.2 -13.5 -11.5 -3.4 1.7 -10.6 7 -16 11.6 -5.4 4.7 -12.4 9.8 -15.4 11.4 -3.1 1.6 -9.2 5.2 -13.6 8 -4.4 2.8 -8.7 4.9 -9.5 4.8 -1 -0.2 -1.9 -2.7 -2.7 -8.2 -1.5 -9.6 -1.8 -10.6 -3.7 -10.6 -2.6 0 -16.1 9.7 -17.4 12.5 -1.9 4.2 -1.4 12.9 1.7 29 1.6 8.3 3.9 21.8 5 30 3.6 24.7 4 26.7 5.3 28.2 1.8 2.2 7.5 1.1 13.7 -2.7 l5.4 -3.3 -0.7 -11.6 c-0.3 -6.4 -0.9 -17.1 -1.3 -23.8 l-0.6 -12.3 3.4 -1.4 c3.5 -1.5 10.4 -7.2 19.8 -16.1 2.8 -2.7 5.5 -5 5.9 -5 1.6 0 3.1 13.2 3.2 27.1 0 24.5 -5 48.3 -11.6 54.9 -2.1 2.1 -3.5 4.9 -4.4 8.6 -0.7 3 -2.6 9.1 -4.2 13.7 -2.2 6.4 -2.6 8.7 -1.8 10.2 1.3 2.5 2.2 2.5 9.1 0.1z"/>
  <path d="M679.6 507.8 c-4.3 -6.1 1.8 -15.8 9.7 -15.8 3 0 3.7 1.6 3.7 8.4 0 4.6 -0.3 5.5 -3 7.4 -3.8 2.9 -8.4 2.9 -10.4 0z"/>
  <path d="M58 646.4 c0 -6.8 0.7 -7.8 13 -16.9 4.7 -3.5 5.8 -4.1 3.9 -1.9 -4.5 5 -10.8 13.8 -13.9 19.5 l-3 5.4 0 -6.1z"/>
  <path d="M98.8 647.9 c-4.1 -2.3 -0.7 -9.8 6.7 -14.9 2.5 -1.8 4.9 -3 5.1 -2.7 0.3 0.3 0 2.4 -0.6 4.7 -1.7 6.3 -0.2 7.2 6.3 3.7 7.8 -4 12.5 -8.3 13.6 -12.3 0.5 -1.9 0.7 -8.4 0.4 -14.4 -0.7 -12.5 -1.8 -11.1 10.6 -13 7.1 -1 14.2 -0.4 18.4 1.7 2.2 1.1 2.7 2 2.7 5.1 -0.1 8.8 -5.7 17.4 -17.2 26.7 -10.2 8.1 -18 11.9 -30 14.5 -10.3 2.2 -13.5 2.4 -16 0.9z"/>
  <path d="M115.2 630.8 c0.3 -3.1 0.6 -3.3 4.6 -3.6 5.2 -0.4 5.4 0.9 0.5 4.3 -4.9 3.3 -5.5 3.2 -5.1 -0.7z"/>
  <path d="M98 631.1 c0 -3.6 2.2 -12.5 3.6 -14.8 0.8 -1.2 1.4 -2.9 1.4 -3.7 0 -1.8 5.9 -5 15.1 -8.1 l6.6 -2.3 0.7 6.7 c0.3 3.6 0.6 8.3 0.6 10.4 l0 3.7 -6 0 c-6.6 0 -9.7 1.2 -17.2 6.7 -4.4 3.2 -4.8 3.3 -4.8 1.4z"/>
  <path d="M181.9 581.6 c-5.7 -5.7 -7 -7.8 -10.7 -16.8 -6.3 -15.6 -14.2 -54.4 -16.2 -79.3 -0.6 -8.2 -1.8 -19.3 -2.6 -24.6 -4.9 -33.8 -7.7 -84.5 -7.1 -128.4 0.4 -30.1 0.7 -36.1 3.1 -52 1.5 -9.9 3.3 -25 4.2 -33.5 1.9 -20 2.7 -24.5 7.4 -42 2.1 -8 4.6 -18.3 5.5 -23 1.8 -9.9 10.5 -45.4 11.4 -46.9 0.4 -0.6 13 -1.4 32.6 -2.1 40.8 -1.3 68.1 -3.5 82.1 -6.4 3.8 -0.8 18.8 -4.5 33.4 -8.1 14.6 -3.7 32.8 -8.2 40.5 -10.1 7.7 -1.9 19.6 -5.2 26.5 -7.4 17.6 -5.4 18.7 -5.7 36.5 -8 8.8 -1.2 22 -3.7 29.4 -5.6 7.4 -1.9 19.3 -4.4 26.5 -5.5 16.9 -2.6 18.5 -3 35.3 -8.3 8.4 -2.6 18.1 -4.9 23.6 -5.6 5.2 -0.6 13.7 -2 18.8 -3.1 23.8 -5.1 28.1 -5.8 38.4 -6.8 6.1 -0.6 16.9 -2.2 24 -3.5 16.1 -3 33.8 -3.4 53 -1.3 25.6 2.9 38.8 5.9 44 10.1 2.8 2.2 3 2.9 3.3 10.3 0.5 10.4 -2.9 21.9 -9.6 32.5 -5.4 8.6 -7.1 10.8 -8.2 10.8 -0.4 0 -1 -5.5 -1.4 -12.2 -0.9 -16.4 -1.3 -17.9 -6.4 -22.1 -5.3 -4.5 -10.6 -5.4 -22.7 -3.9 -29 3.6 -60.8 21.5 -90.2 50.9 -16.7 16.6 -21.3 23.5 -21.3 31.4 0 4 0.6 4.8 10.3 14.8 9.7 10.1 10.4 11.1 13.9 20.3 5.9 15.2 13.5 53.2 15.8 79.8 1.1 11.8 2.4 24 2.9 27 1.5 7.8 4.9 47.2 6.1 69 0.5 10.2 1 32.2 1 49 0 26.6 -0.4 32.9 -2.5 49.5 -1.4 10.5 -3.2 25.1 -4 32.5 -3 27 -4.5 36.9 -7 46.6 -1.5 5.4 -2.8 10 -3 10.2 -0.2 0.3 -4.7 0.4 -9.9 0.3 -9.6 -0.2 -44.9 1.4 -54.1 2.5 l-5 0.5 4 -4.2 c2.2 -2.3 6.5 -5.7 9.5 -7.7 8.2 -5.2 22 -16.4 27.1 -21.9 17.7 -19.1 32 -44.1 37.1 -65.2 2.8 -11.6 2.8 -28.4 -0.2 -39.6 -4.6 -17.9 -14.4 -29.1 -33.7 -38.7 l-10.3 -5 -11 0.1 -11 0.1 0 -4.6 c0 -2.9 -1 -6.5 -2.6 -9.9 l-2.7 -5.4 3.8 -4.2 c5.1 -5.7 10.3 -17 12.1 -26.5 0.8 -4.3 2.6 -12 3.9 -16.9 1.9 -7.1 2.5 -11.5 2.5 -20 0 -19.7 4.4 -48.8 9.1 -59.8 1.1 -2.6 1.7 -5.2 1.4 -5.7 -1.5 -2.4 -3.7 -0.5 -6.7 5.7 -3.1 6.3 -4 7.1 -13.8 13.9 -20.1 13.9 -26.1 15.9 -45 14.9 -9.3 -0.5 -13.8 -0.3 -17.7 0.8 l-5.2 1.4 -4.8 -4.9 c-2.6 -2.7 -8.7 -8.1 -13.4 -11.9 -8.6 -7 -8.6 -7.1 -9.7 -13.3 -1.1 -5.6 -1 -6.9 0.9 -12.2 2 -5.6 2.1 -6.7 1.1 -20.9 -0.8 -11.6 -1.6 -16.1 -3.2 -20 -1.2 -2.8 -3.2 -7.9 -4.4 -11.5 -1.2 -3.6 -4.7 -10.4 -7.9 -15.2 -10.5 -16.3 -20.5 -20.5 -38.7 -16.3 -26.4 6.1 -47.6 22.9 -69.8 55.3 -6.6 9.7 -10.1 16.9 -15.5 32.1 l-4.3 12.1 -10.4 8.4 c-5.8 4.6 -12.7 10.7 -15.4 13.4 -4.5 4.7 -5.1 5 -7.5 3.9 -1.6 -0.7 -9.4 -1.1 -20.1 -1.2 -21.5 0 -23.9 -0.7 -42.5 -13.3 -12.6 -8.5 -13.1 -8.9 -16.3 -15.4 -3.1 -6.5 -5.6 -8.5 -6.8 -5.4 -0.3 0.8 0.2 2.8 1 4.5 4.5 8.6 9.6 41 9.6 60.7 0 8.2 0.6 13.1 3 22.7 1.6 6.7 3.7 15 4.5 18.5 1.9 8.1 6 16.3 10.7 21.7 l3.8 4.3 -2.5 5.4 c-3.7 7.8 -3.3 12.9 1.5 23.4 2.2 4.8 3.8 8.9 3.6 9.2 -0.3 0.2 -4.6 0.9 -9.7 1.4 -9.6 0.9 -15.5 3.2 -23.4 8.9 -2.2 1.6 -6.7 4.7 -10 6.9 -3.3 2.2 -9.4 6.4 -13.5 9.3 l-7.5 5.3 -0.3 5.2 c-0.3 5.7 2.5 43.9 3.4 45.3 1.1 1.8 4.3 0.8 13.5 -4 10.9 -5.8 24.9 -11.5 25.8 -10.6 1.6 1.7 0.6 118.4 -1.1 120 -0.2 0.2 -3.7 0.6 -7.8 1 l-7.5 0.7 -6.6 -6.6z"/>
  <path d="M580.5 166.4 c-8.8 -1.2 -9.3 -1.4 -10.4 -4.5 -1.5 -4.3 1.9 -10.9 10.7 -20.6 15.6 -17.2 37.7 -34.8 57.6 -45.7 8.8 -4.9 28.7 -11.3 39.6 -12.7 10.6 -1.4 15.7 -0.3 19.5 4.3 2.5 2.9 2.7 3.8 2.3 9.3 -1.1 13 -15.1 33 -32.1 45.9 -2.1 1.6 -3.9 2.7 -4.1 2.5 -0.3 -0.2 0.2 -2.9 1 -5.9 0.7 -3 1.8 -9.8 2.3 -15 1.1 -11.5 0 -14.5 -6.4 -16.7 -3.6 -1.2 -5 -1.1 -15.4 1.3 -14 3.3 -24 8.1 -34.1 16.7 -9.5 8 -14.5 15.2 -16.6 24 -2 7.9 -1.2 10.6 3.7 13.6 2.7 1.6 2.8 2 1.3 2.4 -2.9 0.8 -15.5 1.5 -18.9 1.1z"/>
  <path d="M605.1 160.9 c-5.9 -1.1 -7.1 -2.4 -7.1 -7.3 0 -4.6 2.6 -10.9 6.6 -16.2 4 -5.2 17.8 -15.8 25.1 -19.3 7.8 -3.8 24.2 -7.5 28.9 -6.6 4.4 0.8 5.4 4.1 2.7 8.7 -2 3.4 -11 10.5 -12 9.4 -0.3 -0.3 -0.1 -2.4 0.6 -4.7 2.2 -7.3 -0.5 -7.6 -10.8 -0.9 -9.5 6.2 -10.3 8 -9.5 22.6 0.8 13.9 1.7 12.6 -9.6 14.4 -7.4 1.1 -8.8 1.1 -14.9 -0.1z"/>
  <path d="M634.6 151.1 c-0.3 -3.6 -0.6 -8.3 -0.6 -10.3 l0 -3.8 6 0 c6.6 0 9.7 -1.2 17.3 -6.7 4.6 -3.4 4.7 -3.4 4.7 -1.1 0 3.2 -2.9 14.1 -4.1 15.2 -0.5 0.6 -0.9 1.8 -0.9 2.8 0 2.1 -5.4 5 -15.1 8.3 l-6.6 2.3 -0.7 -6.7z"/>
  <path d="M685.1 132.4 c4.5 -5 10.8 -13.8 13.9 -19.5 l3 -5.4 0 6.1 c0 6.8 -0.7 7.8 -13 16.9 -4.7 3.5 -5.8 4.1 -3.9 1.9z"/>
  <path d="M635 132.6 c0 -0.8 8.1 -6.6 9.2 -6.6 0.5 0 0.8 1.5 0.6 3.3 -0.3 3.1 -0.5 3.2 -5 3.5 -2.7 0.2 -4.8 0.1 -4.8 -0.2z"/>
 </g>
 <g fill="#faf7d1">
  <path d="M371.2 625.3 c-2.9 -3.1 -6.4 -7.7 -7.6 -10.2 -6.6 -13.1 -24.2 -74.3 -32.1 -111.6 -0.9 -4.4 -2.1 -9.4 -2.6 -11.1 -0.8 -2.5 -0.4 -4.2 2 -9.6 1.7 -3.6 3.5 -8.7 4.2 -11.2 1 -4.1 1.4 -4.6 3.3 -4 1.1 0.4 2.2 0.8 2.4 0.9 0.2 0.2 -0.4 3.7 -1.2 7.9 -2.5 11.8 -1.9 16.3 2.3 18.5 3.9 2.1 24.2 6.1 26.1 5.1 2.6 -1.4 3 -3.2 3 -14.8 l0 -10.7 9 0 9 0 0 11.7 c0 11.2 0.1 11.8 2.3 13.3 2.2 1.4 3.4 1.3 13.8 -1.1 6.3 -1.4 12.4 -3.2 13.6 -4 3.7 -2.4 3.9 -8.3 0.7 -23.1 -0.4 -2.1 -0.3 -3.3 0.4 -3.3 0.6 0 1.7 -0.3 2.5 -0.6 1 -0.4 1.8 0.8 2.6 4.3 1.5 5.8 7.4 18.7 9 19.8 1.9 1.1 15.9 -6.2 23.4 -12.2 5.5 -4.4 6.7 -5.9 6.7 -8.3 0 -4 -3.2 -11 -7 -15.4 -1.8 -2 -3.1 -3.8 -2.9 -3.9 0.2 -0.2 2.9 -1.9 6 -3.9 14.3 -9.2 25 -21.1 32.1 -35.5 2.8 -5.7 5.5 -10.3 6.2 -10.3 2 0 17.1 -10.6 23.5 -16.6 7.3 -6.8 9.4 -10.4 9.3 -16.1 0 -2.4 0.3 -4.3 0.8 -4.3 1.1 0 5 9.4 5 12 0 2.1 -30.7 64.4 -35.7 72.4 -1.4 2.2 -6.5 10 -11.3 17.1 -4.8 7.2 -12.6 20 -17.3 28.6 -4.8 8.5 -9.6 16.4 -10.7 17.4 -1.1 1 -2 2.5 -2 3.3 0 0.8 -2.2 5.1 -4.8 9.6 -6.4 10.7 -23.6 44.1 -25.1 48.8 -0.7 2.1 -3.2 6.4 -5.5 9.5 -2.3 3.2 -6.3 9.1 -8.9 13.2 -4.4 6.7 -15.6 18.7 -28 29.8 -6.8 6.2 -9.6 5.9 -16.5 -1.4z"/>
  <path d="M351.2 606.3 c-2.1 -2.2 -5.1 -6.2 -6.7 -8.9 -1.5 -2.7 -5 -7.9 -7.7 -11.7 -2.8 -3.7 -5.8 -8.8 -6.8 -11.5 -2.5 -6.6 -22.6 -44.9 -29.2 -55.7 -3 -4.9 -9 -15.3 -13.2 -23 -4.3 -7.7 -12.9 -21.6 -19.1 -31 -8.7 -13.1 -15.3 -24.9 -28.4 -51 -9.4 -18.7 -17.1 -35 -17.1 -36.3 0 -3 3.9 -12.2 5.2 -12.2 0.5 0 0.7 1.3 0.3 3 -1 4.4 2.4 10.7 9.1 17.1 6 5.6 19.5 15.2 23.7 16.8 1.6 0.6 3 2.6 4.2 5.8 2.9 8 10.4 19.1 17.7 26.4 6.1 6.1 19 16.1 22.1 17.2 0.7 0.2 -0.2 1.9 -2.2 4.2 -4.1 4.7 -7 11 -7.1 15.1 0 2.6 1 4 5.7 8 3.1 2.7 9.3 6.7 13.7 8.9 9.1 4.6 8.8 4.1 12 20 4.6 22.2 17 67.5 24.5 89.9 2.3 6.6 3.9 12.2 3.6 12.4 -0.3 0.3 -2.2 -1.3 -4.3 -3.5z"/>
  <path d="M253.9 391.9 c-12.7 -8.8 -20.9 -17.4 -20.9 -22 0 -2.8 1.4 -3 8.7 -1.3 3.7 0.9 8.7 1.4 11.1 1.1 4 -0.4 4.2 -0.3 4.2 2.2 0 1.4 1.1 7.7 2.3 13.9 1.3 6.1 2.2 11.2 2.2 11.2 -0.1 0 -3.5 -2.3 -7.6 -5.1z"/>
  <path d="M499.3 393.4 c0.4 -1.6 1.4 -7.7 2.3 -13.5 l1.8 -10.6 4 0.4 c2.3 0.3 7.2 -0.2 10.9 -1.1 8.2 -1.9 7.4 -1.9 8.1 -0.1 0.9 2.5 -1.3 6.7 -6.2 11.8 -4.6 4.7 -14.2 12.1 -19.1 14.7 -2.3 1.2 -2.4 1.1 -1.8 -1.6z"/>
  <path d="M238.3 363.1 c-13.7 -3.9 -23.2 -17 -26.3 -36.4 -0.5 -3.6 -2 -9.6 -3.2 -13.4 -1.6 -5.2 -2.1 -9 -2 -16.1 0.2 -8.8 -2.8 -37.7 -4.8 -46.6 -0.5 -2.2 -0.7 -4.2 -0.5 -4.4 0.1 -0.2 4.5 2.6 9.7 6.1 18.6 12.9 25.9 15.3 43.4 14.3 7.6 -0.4 14.1 -0.2 17.3 0.5 2.8 0.6 5.1 1.2 5.1 1.4 0 0.1 -1.6 2.9 -3.5 6.1 -11 18.2 -19.4 54.5 -18.2 78.7 l0.6 11.7 -5.7 -0.1 c-3.1 0 -8.5 -0.8 -11.9 -1.8z m-4.3 -23 c2.4 -4.6 0.3 -24.2 -4.2 -38.1 -1.1 -3.6 -4.4 -11.2 -7.3 -17 -5.2 -10.4 -8.1 -18.2 -8.7 -23 -0.5 -3.8 -3.2 -3.2 -3.6 0.8 -0.5 4.5 2.1 11.7 8.9 25.2 8 15.6 13 36.4 11.6 48 -0.3 2.6 -0.3 5.1 0 5.4 1.1 1.1 2.2 0.6 3.3 -1.3z m16.6 -44.6 c1 -3.9 -4.1 -12.8 -12.5 -21.7 -6.9 -7.4 -10.4 -9.4 -11.4 -6.5 -0.2 0.6 2.2 3.6 5.4 6.5 7.2 6.5 14.2 16.7 13.3 19.4 -0.6 2.1 1.1 4.8 3.2 4.8 0.8 0 1.6 -1.1 2 -2.5z"/>
  <path d="M504.4 348.3 c0 -14.3 -0.4 -18.7 -2.8 -29.8 -3.6 -17.2 -8.8 -32.7 -14.2 -42.1 -2.4 -4.3 -4.4 -7.9 -4.4 -8 0 -0.1 2.3 -0.7 5.1 -1.3 3.2 -0.7 9.7 -0.9 17.3 -0.5 9.9 0.6 13.2 0.4 18.1 -1 7.9 -2.3 17 -7.2 27.4 -14.7 7 -5 8.2 -5.6 7.7 -3.7 -0.7 2.4 -2.7 16.4 -4.6 31.3 -0.6 5 -1 12.9 -0.9 17.5 0.3 8.5 -0.7 14.1 -7.2 39 -5 19.2 -18.2 30 -36.6 30 l-4.8 0 -0.1 -16.7z m24.8 -12.9 c-0.5 -7.4 2.2 -23.5 5.4 -33.3 1.4 -4.1 4.7 -11.5 7.4 -16.5 5.3 -9.9 8.3 -19 7.8 -23.3 -0.6 -5.2 -3 -3.1 -4.8 4.3 -1 4 -4.1 11.6 -6.9 17 -2.7 5.5 -5.9 12.2 -7 15 -4.7 12.1 -7.9 39.2 -4.9 42.2 2.3 2.3 3.3 0.6 3 -5.4z m-15.2 -38.9 c0.6 -0.8 0.9 -2.3 0.6 -3.3 -0.9 -2.6 6 -12.7 12.9 -19.1 5.7 -5.1 7 -8.1 3.6 -8.1 -3.8 0 -18.7 17.3 -21.1 24.5 -1.9 5.8 0.8 9.9 4 6z"/>
  <path d="M346.7 300.4 c-11.7 -3.2 -13.1 -4 -21.9 -13.2 -9.4 -9.8 -10.9 -13.7 -11.6 -30.1 -0.4 -9.7 -0.1 -12.4 1.8 -18.9 6 -20.1 16 -40.3 25.2 -51 2.2 -2.5 5.2 -6.3 6.6 -8.5 1.5 -2.2 7.6 -8.4 13.7 -13.9 8.9 -8.1 12.9 -10.9 21 -14.9 10.1 -4.9 23.8 -8.9 30.8 -8.9 4.7 0 9.7 2.1 14.8 6 4.2 3.4 13.5 18 15.1 23.8 0.5 2 2.3 6.6 3.8 10.2 1.9 4.4 3 9.2 3.5 14.8 1.3 15.4 0.7 26.2 -1.4 26.2 -0.4 0 -2 -2.8 -3.6 -6.2 -2.3 -5.2 -2.9 -8.3 -3.5 -18.3 -1.2 -18.5 -6.4 -29.5 -14.1 -29.5 -2.4 0 -2.9 -0.4 -2.9 -2.3 0 -2.9 -0.7 -3.7 -2.6 -3 -1 0.4 -1.4 2.3 -1.4 6.3 0 5.2 0.8 7.2 8.3 22.1 4.6 9 10.3 21.1 12.6 26.9 2.4 5.8 4.9 11.6 5.6 13 2.3 4.5 2.9 14 1.2 20.7 -1.7 6.5 -7.3 17.5 -11.9 23.5 -3.3 4.2 -15.6 13.2 -23.3 17 -7.7 3.9 -16.9 6.6 -29.5 8.7 -15.5 2.6 -25.4 2.4 -36.3 -0.5z m7.1 -8.2 c-0.2 -0.9 -1.8 -1.9 -3.6 -2.3 -10.1 -2.1 -15 -15.4 -13.9 -37.9 0.5 -10.3 1 -13.1 5.7 -27.5 2.8 -8.8 6 -17.9 7.2 -20.3 1.1 -2.4 6.7 -9.2 12.5 -15.2 15.7 -16.4 32.9 -28.4 40.4 -28.2 3.2 0.1 4.4 -2.1 2.3 -3.9 -2 -1.6 -9 0.1 -15 3.6 -13.7 8 -38.8 31.5 -43.5 40.7 -1.2 2.4 -4.7 11.7 -7.7 20.8 -5.4 16.2 -5.5 16.7 -5.9 30.8 -0.8 21 1.4 29.7 9 37.1 5 4.7 13.3 6.2 12.5 2.3z m21.2 -1.8 c0 -0.3 -0.9 -1.7 -2 -3.2 -3.1 -4.1 -4.3 -13.2 -3.6 -25.6 0.9 -14.4 4.2 -26.7 11 -41.4 5.9 -12.7 6.6 -15.2 4.1 -15.2 -2.8 0 -13.2 22.9 -16.6 36.5 -2.9 11.7 -3.7 33.2 -1.5 40.8 1.8 6.3 4.7 10 7.1 9.1 0.8 -0.4 1.5 -0.8 1.5 -1z m36.9 -2.8 c3.9 -2.1 11 -10.1 13.1 -14.9 4.1 -9.4 3.5 -22.6 -2.1 -41.7 -1.6 -5.8 -3.7 -15 -4.5 -20.5 -0.8 -5.5 -2.4 -14.5 -3.6 -20 -3 -13.5 -3.4 -21.9 -1.4 -25 3.4 -5.2 0.5 -7.7 -3.3 -2.9 -2.8 3.5 -2.8 14.2 -0.2 24.5 1.1 4.2 2.5 12 3.1 17.5 0.6 5.4 2.5 15.1 4.2 21.4 5 18.6 5.8 23.1 5.9 31.6 0.1 10.1 -2.3 16.2 -8.7 22.5 -4 4 -5 4.4 -9.4 4.5 -5.5 0 -6.5 0.6 -5.7 2.9 0.8 2 8.8 2 12.6 0.1z"/>
 </g>
 <g fill="#ffffff">
  <path d="M355 493.9 c-4.1 -1 -8.6 -2.1 -9.9 -2.4 -2.3 -0.6 -2.4 -0.8 -1.8 -8.3 0.2 -4.3 1.2 -9.3 2 -11.3 0.9 -2.3 1.1 -4.1 0.6 -5.2 -1.1 -1.8 -10.3 -5.1 -12.3 -4.4 -0.7 0.3 -1.7 2.3 -2.1 4.4 -1 5.3 -6.5 19.3 -7.5 19.3 -3.9 0 -20 -10.1 -23.2 -14.4 -1.3 -1.9 2.4 -9.1 7.4 -14.4 l5.2 -5.5 -2.5 -1.9 c-1.3 -1 -5.3 -3.8 -8.9 -6.1 -3.6 -2.3 -10.6 -8.2 -15.6 -13.2 -7.6 -7.6 -9.8 -10.5 -13.8 -18.5 -7.9 -16.1 -13 -42.1 -12.9 -65.5 0.1 -21.4 6.4 -48.4 15.3 -65.4 5.5 -10.6 11.7 -18 23.5 -28 l10 -8.5 0.6 13 c0.7 16.6 2.2 21.1 9.9 29.9 9.6 11.2 13.4 13.6 27.5 17.3 13.7 3.5 18.5 3.6 35.1 0.7 16 -2.8 24.9 -5.3 32.9 -9.3 7.6 -3.7 20 -12.8 23.9 -17.4 4.7 -5.5 12.3 -20.3 13.7 -26.7 0.6 -2.9 1.5 -5.1 1.9 -4.9 2.5 0.9 18.6 15.6 22.5 20.6 15.5 19.6 26.3 61 23.5 89.9 -2.4 25.7 -6.5 42.6 -13.3 55.8 -4.9 9.5 -18.2 23.5 -28.7 30.2 -3.6 2.3 -7.6 5.1 -9 6.1 l-2.4 2 5.5 5.9 c3 3.3 6 7.6 6.6 9.6 l1.1 3.7 -5.7 4.9 c-4.8 4.2 -15.5 10.1 -18.2 10.1 -1 0 -6.5 -14.3 -7.4 -19.3 -0.4 -2.1 -1.4 -4.1 -2.1 -4.4 -1.7 -0.6 -10.9 2.4 -12.3 4.1 -0.7 0.8 -0.5 2.5 0.6 5.6 0.8 2.5 1.8 7.7 2.1 11.6 0.5 8.3 1.8 7.2 -12.7 10.4 -5.1 1.1 -9.6 1.8 -9.9 1.5 -0.3 -0.3 -0.6 -6.5 -0.6 -13.8 l-0.1 -13.2 -4 0.5 c-6.3 0.7 -14.6 0.6 -19.2 -0.3 l-4.3 -0.9 0 14.1 c0 16.2 1.1 15 -11 12z m29.8 -45.9 c4.4 -2.7 5.8 -6.5 3.8 -10.6 -3.2 -6.8 -14.1 -6.7 -17.3 0.2 -2.1 4.2 -0.8 7.5 3.9 10.4 4.1 2.5 5.5 2.5 9.6 0z m-37.7 -18.5 c8.3 -4.1 13.5 -8.9 16.6 -15.3 2.6 -5.3 2.8 -6.5 2.7 -17.7 0 -13.5 -1.9 -21.5 -8 -34.1 -2.6 -5.6 -5.1 -8.8 -11.4 -14.7 -4.4 -4.2 -10.5 -8.8 -13.6 -10.3 -5 -2.5 -6.2 -2.6 -13.2 -2 -5.6 0.4 -9.4 1.4 -14 3.7 -7.8 3.8 -12 8.1 -16.6 16.8 -8.7 16.6 -6.4 36.7 6.1 53.7 5.3 7.2 15.6 16.4 21.9 19.5 9.6 4.6 20.9 4.8 29.5 0.4z m92 1 c2.5 -0.9 8.1 -4.4 12.5 -7.9 17.6 -14.2 26.1 -32.8 23.4 -51.7 -2.9 -20.3 -16.3 -33.9 -35.1 -35.5 -10.8 -0.9 -16 1.6 -27.7 13.3 -7.9 7.8 -9.3 9.8 -12.4 17.3 -5.1 12.5 -6.2 18.1 -6.2 31.5 0 11.1 0.2 12.4 2.6 17.2 3.6 6.8 12.8 14.2 21.3 17 4.8 1.6 15.1 1 21.6 -1.2z"/>
 </g>
</svg>