<?xml version="1.0" standalone="no"?>
<!DOCTYPE svg PUBLIC "-//W3C//DTD SVG 20010904//EN"
 "http://www.w3.org/TR/2001/REC-SVG-20010904/DTD/svg10.dtd">
<svg version="1.0" xmlns="http://www.w3.org/2000/svg"
 width="759.000000pt" height="759.000000pt" viewBox="0 0 759.000000 759.000000"
 preserveAspectRatio="xMidYMid meet">

<g transform="translate(0.000000,759.000000) scale(0.100000,-0.100000)"
fill="#000000" stroke="none">
<path d="M6360 7109 c-41 -4 -111 -14 -155 -23 -44 -9 -143 -23 -220 -32 -77
-8 -196 -28 -265 -44 -69 -15 -161 -33 -205 -40 -177 -25 -208 -32 -327 -69
-168 -54 -186 -58 -336 -81 -72 -11 -195 -36 -274 -56 -79 -19 -208 -44 -288
-55 -184 -24 -217 -31 -369 -79 -119 -38 -322 -91 -686 -181 -311 -77 -381
-90 -574 -109 -170 -17 -650 -40 -823 -40 l-58 0 0 56 c0 71 -26 186 -56 245
-33 66 -101 123 -172 143 -79 22 -127 20 -273 -9 -206 -41 -296 -77 -470 -190
-135 -88 -197 -154 -336 -361 -136 -203 -168 -280 -178 -421 -2 -43 -10 -149
-16 -235 l-12 -157 32 -143 c18 -79 50 -192 71 -253 47 -130 113 -442 130
-605 6 -63 17 -164 25 -225 27 -212 36 -449 25 -665 -32 -667 -51 -836 -126
-1155 -24 -104 -56 -260 -69 -347 -14 -86 -39 -209 -56 -275 -18 -65 -40 -149
-50 -187 -28 -107 -42 -283 -37 -450 5 -150 6 -152 58 -306 51 -154 52 -155
96 -182 80 -49 200 -76 464 -103 223 -24 337 -20 545 16 61 11 170 26 243 34
73 8 203 30 290 49 86 19 199 40 250 46 96 12 132 21 332 83 63 19 167 43 230
52 63 9 198 36 300 60 102 24 232 49 290 56 140 15 221 32 370 79 69 21 172
51 230 65 58 14 155 39 215 55 160 43 550 137 620 149 148 25 749 61 1021 61
l54 0 0 -62 c0 -131 47 -256 120 -322 84 -76 178 -91 360 -57 207 39 325 87
499 201 131 86 187 147 328 357 155 231 168 268 186 527 6 99 11 217 11 261
-2 93 -47 292 -98 430 -41 109 -111 439 -126 590 -5 61 -17 160 -25 220 -28
217 -38 476 -26 690 30 527 41 679 60 790 11 66 21 134 21 151 0 18 16 92 36
165 19 74 53 235 74 359 22 124 49 259 60 300 75 272 90 367 90 577 0 147 -14
236 -55 348 -19 50 -38 108 -44 130 -8 32 -20 45 -53 65 -50 29 -179 69 -223
70 -17 0 -46 5 -65 11 -93 29 -429 45 -590 28z m415 -53 c251 -27 389 -58 438
-98 30 -26 49 -97 40 -157 -12 -84 -55 -201 -101 -273 -84 -133 -92 -136 -92
-40 0 37 -5 105 -11 152 -9 78 -12 86 -47 117 -51 45 -99 57 -206 49 -81 -6
-180 -32 -324 -83 -68 -24 -195 -98 -332 -192 -168 -116 -417 -361 -461 -454
-17 -37 -29 -78 -29 -103 0 -38 5 -47 73 -111 100 -95 128 -134 170 -238 52
-127 142 -574 157 -780 6 -82 17 -193 25 -245 73 -482 97 -1410 46 -1760 -11
-80 -28 -208 -36 -285 -31 -279 -45 -372 -72 -470 l-28 -100 -80 3 c-78 4
-460 -13 -560 -24 l-50 -5 40 42 c22 23 65 57 95 77 142 92 252 190 350 312
229 287 335 571 310 829 -25 257 -128 402 -367 518 l-91 45 -111 -1 -111 -1 0
45 c0 28 -10 65 -27 99 l-27 55 38 42 c52 57 104 169 122 265 8 43 24 113 36
154 16 55 23 110 25 205 6 226 49 508 94 609 9 22 15 45 12 53 -11 29 -34 10
-65 -54 -32 -66 -37 -70 -163 -155 -186 -126 -210 -133 -425 -133 -107 -1
-185 -5 -201 -12 -24 -11 -30 -8 -75 38 -27 28 -88 82 -136 121 -82 66 -88 74
-94 117 -4 25 -10 54 -15 63 -5 9 -5 19 -1 22 5 3 17 32 26 64 17 54 17 74 7
205 -8 107 -17 158 -32 194 -12 26 -31 77 -43 113 -48 140 -163 281 -259 317
-103 38 -334 -19 -491 -120 -86 -56 -239 -198 -305 -285 -154 -202 -199 -283
-271 -489 -23 -68 -47 -123 -53 -123 -14 0 -182 -138 -240 -198 l-49 -50 -52
14 c-35 9 -101 13 -202 11 -185 -3 -215 7 -399 131 -126 85 -131 89 -163 155
-31 64 -56 84 -68 53 -3 -8 2 -28 10 -45 46 -87 96 -406 96 -606 0 -86 5 -130
24 -200 14 -49 32 -126 40 -169 18 -95 70 -208 121 -264 l36 -41 -25 -54 c-38
-78 -34 -127 14 -232 22 -49 38 -90 36 -93 -3 -2 -46 -9 -97 -14 -123 -12
-138 -20 -428 -224 l-123 -88 6 -120 c9 -159 27 -369 33 -378 9 -17 47 -6 112
31 83 47 271 125 279 116 17 -17 7 -1184 -10 -1200 -2 -2 -37 -6 -78 -10 l-75
-7 -66 66 c-57 57 -70 78 -107 168 -24 58 -53 155 -66 223 -14 66 -37 174 -51
240 -15 69 -34 210 -45 333 -11 116 -24 238 -29 270 -16 88 -49 474 -62 707
-6 117 -9 360 -6 550 4 301 7 361 31 520 15 99 33 250 41 335 19 190 35 280
79 438 19 67 42 164 51 214 19 99 73 329 100 420 l16 56 142 6 c507 20 658 28
787 41 180 19 192 21 535 107 154 38 341 85 415 103 74 19 200 54 280 78 170
52 211 61 385 83 71 9 198 33 281 54 84 22 190 44 236 50 124 16 218 37 371
86 90 28 180 49 260 59 67 9 178 29 247 45 69 16 170 34 225 41 55 6 170 22
255 37 156 26 331 42 405 36 22 -1 103 -9 180 -18z m137 -296 c20 -6 49 -25
64 -42 24 -29 26 -38 22 -93 -7 -76 -55 -174 -136 -276 -62 -78 -160 -172
-211 -202 l-30 -18 13 33 c13 30 26 107 40 239 7 60 -17 101 -70 117 -33 10
-55 8 -149 -13 -141 -32 -246 -84 -351 -174 -93 -79 -139 -147 -161 -238 -19
-75 -11 -102 38 -132 l32 -20 -29 -7 c-38 -10 -189 -10 -236 -1 -28 6 -39 14
-47 38 -9 26 -7 39 16 87 20 43 62 92 179 207 83 83 178 169 210 190 33 22 82
56 109 76 97 71 248 146 370 184 167 52 256 64 327 45z m413 -81 c10 -43 15
-117 15 -224 0 -179 -11 -287 -40 -396 -62 -232 -82 -320 -105 -469 -15 -91
-44 -232 -65 -315 -21 -82 -41 -175 -45 -205 -3 -30 -15 -109 -25 -175 -19
-116 -43 -447 -60 -815 -19 -437 75 -1202 183 -1485 19 -50 40 -117 47 -150 6
-33 21 -96 32 -140 20 -76 20 -90 9 -285 -13 -228 -29 -326 -65 -405 -13 -29
-77 -130 -141 -224 -132 -194 -178 -240 -343 -343 -126 -80 -232 -121 -397
-155 -273 -57 -390 -3 -441 200 -28 110 -23 200 20 352 20 72 50 198 67 280
16 83 49 227 73 320 52 201 51 197 71 395 8 85 26 238 40 340 14 102 30 258
35 348 10 173 -2 732 -20 952 -20 255 -32 369 -50 505 -11 77 -22 181 -25 230
-12 165 -26 258 -76 500 -64 303 -109 422 -196 509 l-56 56 59 0 c88 0 279 18
370 35 140 26 406 139 599 254 74 44 277 196 325 243 55 55 116 165 146 265
31 101 35 102 59 2z m-5734 -1 c76 -45 110 -107 135 -247 17 -101 16 -113 -42
-336 -24 -94 -53 -220 -64 -280 -11 -61 -35 -166 -54 -235 -49 -178 -63 -255
-80 -430 -8 -85 -27 -240 -41 -345 -38 -281 -47 -431 -40 -715 10 -421 44
-929 75 -1099 5 -29 17 -137 25 -240 9 -102 22 -220 30 -261 96 -502 142 -637
251 -743 l55 -55 -44 5 c-54 6 -295 -13 -394 -32 -102 -19 -273 -85 -427 -162
-154 -78 -245 -135 -342 -214 -40 -31 -90 -69 -112 -83 -22 -14 -48 -36 -57
-48 -63 -89 -103 -166 -130 -251 l-33 -99 -17 49 c-14 37 -19 90 -23 225 -5
211 8 339 50 486 48 172 66 251 93 424 14 90 43 231 65 313 21 83 41 177 45
210 4 33 15 112 26 175 17 108 42 450 59 815 19 424 -77 1201 -183 1480 -19
50 -49 155 -67 234 l-33 144 12 206 c15 238 21 284 52 366 34 90 237 387 318
465 86 82 249 184 366 228 131 50 291 82 396 79 71 -3 93 -7 130 -29z m5416
-302 c-8 -6 -51 -40 -97 -75 l-82 -63 56 68 c30 38 72 99 93 135 l38 67 3 -60
c2 -43 -1 -63 -11 -72z m-393 88 c21 -20 20 -42 -3 -81 -20 -33 -108 -99 -118
-89 -4 3 -1 24 6 47 22 73 -5 76 -108 9 -95 -61 -103 -80 -95 -226 8 -140 18
-126 -103 -144 -75 -12 -172 -1 -199 21 -36 30 0 157 66 232 47 53 185 155
249 184 62 27 196 60 253 62 21 1 43 -6 52 -15z m-164 -164 c0 -35 -13 -43
-66 -38 l-39 3 44 33 c24 17 48 32 53 32 4 0 8 -14 8 -30z m160 -63 c-6 -34
-18 -72 -26 -84 -8 -12 -14 -29 -14 -37 0 -18 -59 -50 -151 -81 l-66 -23 -7
67 c-3 36 -6 83 -6 104 l0 37 61 0 c62 0 117 23 189 79 32 25 35 15 20 -62z
m-2394 -82 c28 -14 62 -37 76 -52 37 -40 125 -188 133 -225 4 -17 20 -61 36
-98 27 -63 31 -92 43 -270 4 -56 -10 -150 -22 -150 -4 0 -21 37 -39 83 -26 67
-33 100 -36 182 -8 169 -64 285 -139 285 -23 0 -28 4 -28 25 0 18 -5 25 -20
25 -17 0 -20 -7 -20 -52 0 -56 48 -178 102 -264 45 -70 178 -395 184 -449 9
-77 -12 -159 -69 -263 -95 -174 -269 -287 -521 -340 -175 -37 -339 -37 -456 0
-100 32 -135 56 -213 145 -76 89 -97 154 -97 304 0 98 3 119 36 216 58 176 93
253 160 353 107 160 168 233 277 332 135 122 258 188 412 223 94 21 145 18
201 -10z m110 -362 c24 -55 43 -143 30 -143 -11 0 -106 202 -100 211 11 19 47
-15 70 -68z m-2085 -806 c107 -59 165 -71 305 -63 76 4 141 2 173 -5 28 -6 51
-12 51 -13 0 -1 -20 -37 -44 -80 -54 -94 -106 -249 -142 -421 -24 -112 -28
-154 -28 -300 l0 -170 -76 7 c-124 11 -178 35 -245 109 -53 59 -90 147 -119
284 -14 66 -32 145 -41 175 -10 36 -13 75 -9 115 6 59 -26 374 -46 460 -5 22
-10 43 -10 47 0 5 37 -19 83 -51 46 -33 112 -75 148 -94z m878 -159 c31 -79
142 -203 216 -240 52 -27 167 -59 247 -69 129 -16 436 44 571 112 68 35 158
100 212 155 60 61 141 209 156 287 l11 56 79 -66 c214 -177 309 -359 375 -725
46 -255 -5 -650 -112 -868 -39 -79 -62 -109 -138 -185 -50 -51 -130 -117 -179
-149 -98 -64 -98 -62 -28 -130 39 -38 79 -123 64 -136 -90 -74 -120 -94 -167
-115 -31 -14 -61 -25 -65 -25 -13 0 -69 139 -77 189 -4 24 -13 45 -20 48 -19
7 -114 -27 -121 -43 -3 -7 2 -42 11 -77 9 -35 16 -86 16 -115 0 -51 0 -51 -37
-61 -98 -26 -185 -42 -191 -36 -4 4 -7 66 -7 138 l0 132 -25 -3 c-32 -5 -188
-5 -220 0 l-25 3 -1 -132 c0 -73 -3 -135 -7 -139 -5 -5 -96 12 -189 37 l-38
10 0 56 c0 31 7 83 16 114 9 32 14 65 11 73 -7 17 -102 50 -122 42 -8 -3 -15
-14 -15 -25 0 -21 -44 -149 -66 -192 l-13 -26 -61 28 c-33 16 -87 50 -120 76
-49 38 -59 50 -54 67 16 53 34 86 65 117 68 70 70 62 -28 125 -120 77 -257
217 -307 311 -63 123 -91 221 -121 423 -35 240 -26 397 35 635 71 275 146 398
345 564 l90 75 6 -130 c4 -99 11 -142 28 -186z m2462 259 c-23 -99 -53 -394
-48 -460 4 -44 1 -85 -9 -120 -8 -28 -26 -106 -40 -171 -29 -137 -59 -211
-110 -273 -68 -82 -160 -122 -282 -123 l-53 0 7 113 c14 239 -69 601 -182 790
-18 32 -34 60 -34 62 0 14 119 24 224 19 177 -10 249 15 441 150 50 34 91 62
93 61 1 -1 -2 -23 -7 -48z m-3288 -1200 c2 -45 8 -62 33 -94 44 -55 190 -170
256 -201 31 -15 57 -32 57 -38 1 -7 21 -53 46 -102 33 -67 67 -113 123 -173
68 -73 210 -190 243 -201 7 -2 -4 -25 -29 -57 -43 -57 -68 -126 -58 -159 9
-28 118 -111 200 -152 80 -39 81 -42 111 -185 49 -238 148 -604 249 -920 19
-60 33 -111 30 -114 -10 -10 -60 50 -133 157 -80 119 -92 141 -192 342 -95
192 -150 294 -228 423 -39 65 -99 169 -132 230 -33 62 -113 191 -177 287 -88
133 -157 257 -289 518 -110 218 -173 353 -173 372 0 45 43 140 57 126 3 -2 6
-29 6 -59z m3058 9 c10 -22 19 -55 19 -72 0 -22 -57 -145 -173 -375 -132 -263
-199 -383 -283 -509 -61 -91 -148 -232 -193 -315 -46 -82 -92 -156 -102 -163
-10 -7 -19 -21 -19 -31 0 -9 -14 -39 -31 -66 -44 -69 -240 -448 -268 -518 -13
-31 -38 -76 -56 -100 -17 -23 -54 -76 -80 -117 -31 -50 -95 -121 -188 -213
-130 -126 -144 -137 -178 -137 -33 0 -44 7 -94 62 -31 35 -63 75 -71 90 -19
37 -121 352 -177 548 -42 144 -90 336 -152 606 l-26 111 30 69 c16 38 34 88
41 112 10 38 14 42 33 36 31 -9 30 -8 18 -62 -19 -79 -19 -178 1 -198 18 -19
194 -63 250 -64 51 0 58 17 58 147 l0 108 90 0 90 0 0 -108 c0 -60 5 -117 10
-128 14 -25 53 -25 172 2 133 30 138 34 138 118 0 38 -5 92 -12 120 -12 56
-12 56 18 65 18 5 23 0 33 -36 24 -80 73 -188 90 -197 38 -21 284 133 297 185
3 13 0 40 -6 61 -13 40 -73 129 -91 135 -6 2 19 23 55 47 89 57 227 189 276
264 22 34 53 92 68 129 19 48 33 69 49 73 28 7 142 84 211 142 84 72 107 107
109 172 1 31 2 57 3 59 1 13 25 -18 41 -52z m-2860 9 l77 0 12 -84 c7 -46 18
-109 26 -140 7 -31 11 -57 10 -59 -6 -6 -154 98 -204 143 -58 53 -82 90 -82
131 0 26 1 26 43 18 23 -5 76 -9 118 -9z m2774 5 c15 -25 -10 -77 -65 -131
-51 -52 -208 -164 -216 -156 -2 2 5 44 15 93 11 49 22 112 26 139 l6 50 63 -3
c34 -2 78 1 97 6 46 14 67 14 74 2z m454 -219 c224 -114 316 -256 328 -507 7
-133 -11 -236 -64 -369 -108 -272 -298 -507 -549 -681 -101 -70 -237 -201
-230 -221 4 -10 13 -13 29 -9 68 19 602 48 695 38 39 -4 43 -7 38 -26 -3 -11
-16 -72 -27 -133 l-22 -113 -76 -2 c-42 0 -121 -2 -176 -3 -169 -3 -547 -25
-604 -35 -29 -5 -102 -13 -162 -16 l-108 -7 5 54 c3 30 14 109 25 176 10 67
21 162 25 210 10 158 12 164 131 282 58 58 144 150 190 203 46 53 141 149 211
214 70 64 133 128 141 143 8 14 18 62 23 106 21 207 21 207 7 216 -22 14 -272
11 -292 -3 -10 -8 -23 -44 -33 -88 -8 -41 -16 -75 -17 -75 -51 -12 -177 -45
-190 -50 -14 -6 -10 5 16 46 19 30 105 194 192 364 86 171 162 316 168 324 9
10 37 12 127 9 112 -4 117 -6 199 -47z m-3308 -359 c63 -124 112 -231 110
-236 -2 -6 -3 -28 -2 -49 2 -34 -4 -72 -39 -277 -16 -93 -30 -322 -41 -661 -5
-178 -12 -340 -15 -359 -10 -62 3 -69 156 -76 76 -3 161 -2 195 4 33 5 61 9
62 8 7 -7 43 -343 43 -409 l0 -85 -122 -7 c-68 -3 -175 -5 -238 -4 -63 1 -160
-3 -215 -9 -55 -7 -210 -17 -345 -22 -135 -6 -265 -15 -290 -20 -112 -23 -112
-23 60 149 121 121 166 174 189 220 32 63 41 137 20 158 -8 8 6 13 55 18 36 4
71 14 77 21 16 19 40 211 32 254 -3 19 -7 257 -7 528 -1 405 -3 494 -15 501
-17 11 -184 -53 -300 -115 -46 -24 -85 -43 -87 -42 -2 3 -20 220 -28 354 l-5
81 77 53 c170 117 269 183 307 203 34 18 117 33 236 44 12 1 48 -61 130 -225z
m3104 -199 c-4 -27 -12 -89 -19 -139 l-13 -91 -74 -69 c-89 -82 -188 -182
-410 -415 -113 -119 -169 -185 -177 -209 -5 -19 -13 -78 -16 -130 -4 -52 -13
-137 -22 -189 -23 -145 -45 -323 -41 -327 6 -6 273 15 342 26 33 5 125 10 205
10 80 0 174 5 210 12 36 6 140 11 232 12 143 1 168 -1 168 -14 0 -18 -66 -269
-72 -275 -3 -3 -139 -9 -304 -15 -459 -15 -719 -37 -884 -75 -266 -61 -878
-216 -925 -235 -87 -34 -257 -72 -395 -90 -85 -12 -225 -38 -310 -60 -85 -21
-206 -46 -269 -55 -133 -18 -192 -32 -356 -85 -74 -24 -166 -44 -240 -54 -66
-9 -167 -27 -225 -41 -58 -13 -159 -32 -225 -40 -66 -9 -190 -28 -275 -42
-181 -30 -421 -47 -465 -34 -16 6 -81 12 -143 15 -63 4 -121 10 -130 15 -9 4
-46 11 -81 15 -79 9 -170 37 -209 64 -35 26 -56 95 -47 156 15 91 57 205 103
278 84 133 92 136 92 40 0 -37 5 -105 11 -152 9 -79 12 -86 47 -117 55 -48 91
-57 198 -49 66 4 130 18 221 46 149 46 228 85 371 181 81 55 110 69 140 69 20
0 80 7 132 14 94 14 216 23 460 31 69 2 165 9 213 14 48 5 200 11 338 12 137
1 252 5 254 9 6 9 -13 298 -25 395 -5 39 -12 96 -16 128 -4 32 -11 60 -15 63
-5 3 -28 0 -51 -7 -37 -10 -335 -15 -344 -6 -5 4 14 549 26 772 6 105 22 260
35 345 13 85 26 166 27 179 2 20 24 -7 105 -130 95 -144 283 -469 283 -490 0
-11 -19 -12 -200 -13 l-145 -1 2 -25 c10 -99 13 -395 6 -440 -5 -31 -8 -61 -6
-67 3 -7 76 -9 241 -5 130 2 276 2 324 -2 79 -7 87 -10 92 -31 3 -12 30 -56
59 -96 29 -41 65 -96 81 -124 31 -53 176 -206 289 -305 58 -51 74 -60 107 -60
33 0 49 8 92 47 126 111 266 260 313 333 28 42 68 105 90 138 22 33 45 67 50
75 8 13 45 19 185 28 96 7 180 16 187 21 8 6 11 85 12 271 0 144 2 275 3 292
2 21 -3 32 -18 40 -20 10 -18 15 55 146 102 183 192 319 212 319 9 0 32 6 50
14 19 8 72 22 119 32 92 19 110 31 110 78 0 17 5 48 10 68 12 42 17 43 174 46
l79 2 -8 -47z m-829 -967 l1 -263 -136 -7 c-75 -4 -146 -10 -158 -13 -13 -3
-23 -1 -23 5 0 15 195 386 246 469 25 40 51 73 58 73 8 0 11 -73 12 -264z
m-1674 144 c32 -53 218 -413 215 -416 -1 -2 -131 -4 -287 -6 l-285 -3 0 230 0
230 168 0 168 -1 21 -34z m-1150 -666 c18 -4 30 -15 37 -35 9 -25 6 -39 -17
-87 -20 -44 -61 -91 -178 -207 -83 -83 -178 -169 -210 -190 -33 -22 -81 -56
-109 -76 -148 -108 -389 -208 -556 -230 -110 -15 -158 -7 -199 36 -32 33 -33
36 -28 97 9 103 83 232 212 366 53 55 144 128 151 120 2 -2 -2 -25 -10 -51 -8
-26 -18 -93 -24 -150 -11 -122 0 -152 64 -174 36 -12 50 -11 152 13 137 32
225 72 323 151 118 93 170 169 190 274 12 64 -1 97 -49 121 l-33 16 48 7 c27
3 56 8 64 10 17 4 132 -3 172 -11z m-269 -61 c28 -14 29 -17 24 -68 -10 -96
-63 -170 -190 -266 -45 -34 -106 -73 -136 -86 -79 -35 -253 -70 -288 -57 -58
20 -32 96 52 154 25 18 49 29 52 26 4 -3 1 -24 -6 -47 -19 -62 -3 -71 64 -35
89 46 125 84 136 140 5 28 7 58 4 68 -8 25 -9 158 -1 166 4 3 37 12 74 19 78
14 173 8 215 -14z m-334 -170 l1 -53 -62 0 c-63 0 -106 -18 -185 -78 -32 -24
-33 -24 -33 -4 0 37 22 126 36 149 8 12 14 29 14 37 0 18 60 50 150 81 l65 22
7 -51 c3 -28 6 -75 7 -103z m-511 -100 c-41 -45 -106 -136 -138 -194 l-30 -54
0 63 c0 71 -6 63 124 164 71 54 79 58 44 21z m502 2 c0 -7 -81 -65 -92 -65
-10 0 -11 54 -1 63 7 8 93 10 93 2z"/>
<path d="M6865 6003 c-34 -9 -146 -87 -223 -156 -40 -36 -105 -82 -145 -103
-40 -20 -90 -49 -112 -64 -22 -15 -55 -35 -74 -45 -42 -21 -47 -15 -56 74 -8
75 -19 101 -42 101 -26 0 -153 -90 -168 -120 -21 -40 -19 -147 5 -252 10 -48
28 -149 40 -225 11 -76 23 -145 25 -153 2 -8 9 -60 15 -115 12 -117 27 -145
73 -145 44 0 139 58 147 91 4 13 3 65 -1 114 -14 163 -20 330 -12 340 4 6 24
18 44 28 20 10 82 61 137 113 93 87 102 93 107 72 2 -13 9 -43 15 -68 5 -25
10 -109 10 -186 0 -254 -66 -539 -129 -559 -14 -4 -22 -18 -27 -43 -3 -20 -22
-88 -42 -149 -34 -105 -35 -114 -20 -130 16 -15 22 -15 90 5 40 12 92 24 115
28 24 4 49 12 57 18 16 12 45 89 131 356 68 208 108 367 140 557 14 81 33 170
42 196 15 47 14 53 -10 140 -14 51 -33 127 -42 170 -10 46 -25 87 -36 98 -20
20 -21 20 -54 12z"/>
<path d="M6485 4327 c-77 -47 -144 -93 -189 -131 l-29 -24 16 -54 c33 -107 60
-317 63 -493 1 -93 3 -173 3 -177 3 -21 47 -2 108 47 193 154 321 364 390 638
33 135 35 149 21 164 -9 8 -21 13 -26 9 -6 -3 -33 -48 -60 -99 -57 -105 -113
-182 -159 -221 l-32 -27 -41 80 c-22 44 -40 89 -40 100 0 11 20 60 45 108 25
48 45 95 45 105 0 30 -39 21 -115 -25z"/>
<path d="M6665 3522 c-102 -54 -203 -130 -221 -165 -15 -29 -15 -31 2 -44 14
-11 19 -25 17 -61 -2 -69 -17 -102 -47 -102 -14 0 -27 -4 -30 -8 -3 -5 -10
-68 -16 -141 -6 -73 -18 -165 -27 -204 -29 -128 -18 -167 29 -111 58 70 125
137 150 150 16 8 30 26 33 42 4 15 13 54 20 87 8 33 17 76 20 95 7 45 38 105
56 106 8 1 20 2 27 3 7 1 12 16 12 39 1 49 33 193 60 265 22 59 21 87 -2 87
-7 0 -44 -17 -83 -38z"/>
<path d="M6872 2839 c-88 -17 -216 -108 -253 -182 -32 -62 -24 -158 19 -227
18 -28 29 -56 26 -62 -26 -41 -270 -158 -332 -158 -37 0 -42 49 -11 114 23 45
20 76 -5 76 -21 0 -102 -105 -141 -185 -44 -90 -65 -172 -65 -258 0 -141 44
-153 260 -70 52 20 130 61 173 91 43 29 81 51 84 48 10 -9 -38 -147 -137 -396
-83 -210 -112 -271 -189 -396 -51 -82 -90 -155 -89 -164 2 -8 13 -16 25 -18
17 -3 49 23 131 105 188 187 337 407 563 828 58 108 92 239 87 336 -3 62 -2
65 30 93 122 107 99 303 -47 405 -34 23 -76 30 -129 20z m48 -188 c5 -11 10
-42 10 -68 0 -43 -4 -52 -30 -71 -36 -27 -74 -28 -100 -2 -23 23 -24 29 -8 83
19 64 104 102 128 58z"/>
<path d="M1212 6394 c-15 -25 -91 -144 -169 -264 -137 -211 -142 -219 -132
-253 12 -45 16 -420 5 -475 -9 -42 -8 -44 15 -40 19 2 33 21 64 84 22 44 55
98 73 118 18 20 48 68 67 106 33 66 35 75 35 172 0 151 37 349 97 526 11 34
12 47 2 58 -18 22 -28 17 -57 -32z"/>
<path d="M1388 6188 c-12 -18 -62 -77 -111 -131 -85 -96 -87 -100 -80 -135 4
-20 7 -61 5 -91 -2 -50 9 -81 29 -81 5 0 35 28 67 62 31 34 69 74 83 89 27 27
34 51 63 205 21 108 21 114 -8 114 -16 0 -32 -11 -48 -32z"/>
<path d="M730 5743 c-203 -181 -328 -330 -317 -377 3 -12 30 -82 61 -156 94
-231 162 -487 186 -705 25 -234 31 -446 17 -646 -8 -107 -13 -257 -12 -334 2
-139 2 -140 25 -140 17 0 26 9 35 35 23 65 153 271 242 382 l53 68 -21 21
c-30 30 -35 57 -59 294 -20 197 -20 218 -6 350 8 77 19 150 23 161 4 11 31 55
58 97 48 74 51 77 89 77 27 0 50 -8 74 -27 25 -19 39 -24 50 -16 32 20 138
556 149 753 6 119 -2 160 -32 160 -18 0 -84 -79 -180 -215 -130 -183 -190
-259 -251 -315 -66 -60 -152 -106 -169 -89 -6 6 -10 74 -9 172 0 156 2 167 38
297 39 139 48 201 31 207 -6 1 -39 -23 -75 -54z"/>
<path d="M1273 3458 c-13 -15 -53 -206 -53 -252 -1 -51 -53 -230 -122 -421
-162 -445 -305 -713 -517 -965 -27 -32 -31 -33 -56 -22 -22 10 -30 10 -42 0
-13 -10 -14 -29 -8 -108 10 -140 7 -195 -16 -283 -11 -44 -18 -86 -15 -93 7
-18 42 -18 53 -1 4 7 25 26 46 42 21 15 67 64 104 107 36 44 150 163 252 266
185 186 262 247 333 261 43 9 48 37 38 215 -8 135 -4 247 22 596 6 85 13 245
15 355 3 110 6 225 6 255 2 43 -1 55 -14 58 -9 1 -21 -3 -26 -10z"/>
<path d="M926 3408 c-33 -58 -204 -295 -235 -326 l-30 -30 6 -113 c7 -148 -24
-349 -65 -420 -18 -32 -10 -59 16 -59 23 0 54 45 128 188 60 114 113 192 176
258 l40 42 -1 145 c-1 94 4 178 14 237 9 50 13 95 10 100 -12 20 -41 9 -59
-22z"/>
<path d="M3946 6009 c-27 -11 -86 -45 -130 -76 -97 -67 -311 -279 -350 -345
-15 -25 -53 -124 -84 -220 l-57 -173 1 -175 c0 -141 3 -184 17 -219 35 -90
102 -151 165 -151 46 0 42 27 -6 39 -47 13 -84 51 -114 116 -21 46 -23 63 -23
215 l1 165 56 173 c31 95 67 189 79 210 37 60 228 249 314 312 101 73 159 102
202 102 29 0 34 3 31 22 -4 29 -40 31 -102 5z"/>
<path d="M4101 5964 c-28 -36 -28 -143 -1 -250 11 -43 25 -118 30 -166 10 -85
22 -141 75 -343 53 -203 33 -327 -66 -420 -46 -43 -53 -46 -97 -44 -41 3 -47
1 -47 -16 0 -16 8 -21 39 -23 57 -5 82 4 128 46 94 85 126 183 109 332 -6 53
-19 125 -30 161 -35 115 -59 222 -70 314 -6 50 -20 127 -31 173 -23 97 -25
177 -5 212 30 52 3 71 -34 24z"/>
<path d="M3775 5428 c-96 -204 -132 -368 -123 -555 7 -136 45 -220 87 -193 11
6 9 14 -8 36 -31 42 -44 133 -37 250 10 170 36 265 125 457 45 97 49 117 25
117 -10 0 -34 -40 -69 -112z"/>
<path d="M2103 4984 c-13 -34 17 -129 82 -259 86 -174 136 -376 122 -496 -7
-53 3 -68 27 -43 21 20 21 110 1 227 -23 128 -50 207 -117 338 -34 68 -64 144
-72 180 -13 63 -30 85 -43 53z"/>
<path d="M2270 4914 c0 -8 25 -38 55 -65 71 -66 137 -163 129 -193 -7 -31 20
-54 42 -35 35 29 -19 131 -129 247 -58 60 -97 79 -97 46z"/>
<path d="M3148 4230 c-106 -18 -206 -101 -260 -216 -91 -195 -37 -429 142
-603 113 -110 182 -143 305 -145 70 -1 87 3 135 28 86 45 136 90 167 154 26
53 28 65 27 177 0 134 -19 213 -80 341 -27 56 -51 88 -114 147 -126 118 -185
140 -322 117z"/>
<path d="M4262 4215 c-29 -15 -89 -61 -132 -102 -63 -59 -88 -91 -114 -147
-50 -104 -75 -195 -82 -299 -12 -167 27 -264 136 -338 84 -58 149 -75 237 -62
85 12 135 36 221 107 161 130 245 321 222 504 -26 205 -163 343 -355 358 -73
5 -84 3 -133 -21z"/>
<path d="M3753 3254 c-68 -34 -63 -112 9 -147 32 -16 40 -16 70 -4 43 18 61
41 61 78 0 63 -79 104 -140 73z"/>
<path d="M5465 4988 c-2 -7 -6 -31 -10 -53 -3 -22 -38 -105 -76 -185 -81 -171
-118 -300 -126 -445 -5 -87 -3 -103 11 -118 27 -26 35 -12 29 48 -13 124 34
313 123 491 63 129 94 224 81 257 -7 20 -26 22 -32 5z"/>
<path d="M5229 4863 c-109 -115 -160 -213 -125 -242 22 -19 49 4 42 34 -9 36
92 177 158 221 30 19 35 54 8 54 -10 0 -48 -30 -83 -67z"/>
</g>
</svg>
